<svg xmlns="http://www.w3.org/2000/svg" xmlns:xlink="http://www.w3.org/1999/xlink" viewBox="0 0 185.8 101.17"><defs><style>.cls-1{fill:url(#linear-gradient);}.cls-2{fill:url(#linear-gradient-2);}</style><linearGradient id="linear-gradient" y1="50.59" x2="162.18" y2="50.59" gradientUnits="userSpaceOnUse"><stop offset="0" stop-color="#fef275"/><stop offset="1" stop-color="#bda32b"/></linearGradient><linearGradient id="linear-gradient-2" x1="23.62" y1="50.59" x2="185.8" y2="50.59" xlink:href="#linear-gradient"/></defs><g id="Layer_2" data-name="Layer 2"><g id="object"><path class="cls-1" d="M92.87,101.17l-.57-.31a4.81,4.81,0,0,1-.66-.43,6.87,6.87,0,0,1-.83-.7,8.53,8.53,0,0,1-1.71-2.44,12.54,12.54,0,0,1-1-3.89,28.7,28.7,0,0,1,1.28-11A40.91,40.91,0,0,1,91.84,76a26.69,26.69,0,0,1,1.86-3.26L96,69.31a136.93,136.93,0,0,1,10.83-14.52q1.6-1.82,3.39-3.59c1.19-1.16,2.44-2.3,3.77-3.39a50.29,50.29,0,0,1,4.2-3.07,39.45,39.45,0,0,1,4.66-2.55,31.54,31.54,0,0,1,5.1-1.83c.88-.25,1.78-.41,2.68-.59l1.38-.2c.22,0,.46-.06.7-.09l.71-.07a43.5,43.5,0,0,1,11.56.31,26,26,0,0,1,5.53,1.59,16.3,16.3,0,0,1,4.72,2.95A9.52,9.52,0,0,1,158,48.59a7.06,7.06,0,0,1-.36,4.89,8.9,8.9,0,0,1-.9,1.5,10.33,10.33,0,0,1-1.22,1.35,13.91,13.91,0,0,1-3.12,2.11,23.34,23.34,0,0,1-7.62,2.08,38.9,38.9,0,0,1-4,.21c-1.34,0-2.69-.08-4-.18a36.64,36.64,0,0,1-7.63-1.67A69.27,69.27,0,0,1,121.82,56c-2.34-1.07-4.62-2.21-6.83-3.4-4.42-2.38-8.6-4.88-12.57-7.35S94.69,40.36,91.12,38L81,31.4c-6.33-4.16-11.87-7.71-16.44-10.5-4.42-3-9.88-6.69-16.52-10.47A117.24,117.24,0,0,0,37.11,4.92c-2-.84-4.09-1.66-6.29-2.38A50.64,50.64,0,0,0,23.88.83,31.7,31.7,0,0,0,16.29.44a22.77,22.77,0,0,0-7.81,2,6.19,6.19,0,0,0-.93.46l-.92.49c-.3.17-.58.37-.87.56s-.59.38-.87.58l-.82.65-.41.32c-.14.11-.27.22-.41.35a10.17,10.17,0,0,0-.81.8l-.38.43-.35.46-.17.23L1.38,8l-.31.51L.81,9l-.13.27-.1.28A7.83,7.83,0,0,0,0,11.92l0,.6v.59a5.87,5.87,0,0,0,0,.59c0,.19,0,.39.08.58A11.74,11.74,0,0,0,.75,16.5,16.46,16.46,0,0,0,3,20.38a23.06,23.06,0,0,0,3,3.25,29.09,29.09,0,0,0,3.51,2.72c.63.41,1.27.8,1.93,1.17l.5.27.5.25,1,.49a37.15,37.15,0,0,0,4.22,1.63A44.25,44.25,0,0,0,22,31.31a58.45,58.45,0,0,0,9.05,1.13,93,93,0,0,0,13.19-.37c4.3-.39,8.49-1,12.57-1.71,2-.35,4.06-.73,6-1.12l1.51-.3.79-.17.77-.2c1-.28,2-.58,3-.91,1.92-.65,3.76-1.38,5.56-2.13S78,24,79.74,23.24c6.89-3.1,13.3-6.22,19.35-9s11.72-5.32,17-7.38A112.47,112.47,0,0,1,130.59,2.1,41.41,41.41,0,0,1,142,.73a16.14,16.14,0,0,1,7,1.71c.19.1.36.18.52.28l.43.27.37.24.28.22.51.39-.48-.43-.27-.23L150,2.92l-.42-.31-.5-.31a16.4,16.4,0,0,0-7-2.16,41.57,41.57,0,0,0-11.71.79,109.54,109.54,0,0,0-14.93,4.15C110,7,104.15,9.27,98,11.88s-12.7,5.55-19.59,8.46c-1.73.73-3.47,1.45-5.25,2.14s-3.57,1.36-5.39,1.94c-.91.3-1.83.56-2.74.79l-.69.16-.68.14-1.46.27c-2,.35-4,.7-6,1-4,.64-8.12,1.2-12.29,1.56a94.81,94.81,0,0,1-12.63.31,56.78,56.78,0,0,1-8.43-1,40.56,40.56,0,0,1-4-1,34.22,34.22,0,0,1-3.78-1.43l-.9-.43-.45-.21-.43-.24c-.58-.3-1.14-.64-1.69-1A25.25,25.25,0,0,1,8.49,21a16.52,16.52,0,0,1-4.37-5.73,9.21,9.21,0,0,1-.46-1.56c0-.13,0-.25-.06-.38s0-.26,0-.39l0-.38,0-.37a5,5,0,0,1,.3-1.44l.06-.17A.89.89,0,0,1,4,10.4l.15-.34.2-.33.09-.16.12-.16.22-.31L5,8.8a6.11,6.11,0,0,1,.56-.58,3,3,0,0,1,.32-.28l.34-.29.68-.56.72-.5c.25-.17.48-.35.73-.5l.76-.43c.25-.14.5-.29.77-.41A19.88,19.88,0,0,1,16.57,3.4a29.29,29.29,0,0,1,6.88.16A49.84,49.84,0,0,1,30,5c2.12.62,4.17,1.34,6.15,2.09,3.94,1.55,7.58,3.26,11,5,6.71,3.46,12.35,6.84,16.91,9.63,4.4,3,9.73,6.82,15.87,11.23,3.07,2.21,6.35,4.57,9.83,7s7.17,5,11.09,7.65,8.07,5.26,12.53,7.8q3.35,1.91,7,3.65a69.59,69.59,0,0,0,7.58,3.15,39.37,39.37,0,0,0,8.44,2c1.44.14,2.9.24,4.38.26a42.32,42.32,0,0,0,4.48-.2,26.74,26.74,0,0,0,9-2.41,17.48,17.48,0,0,0,4.06-2.72,15.1,15.1,0,0,0,1.69-1.87,12.78,12.78,0,0,0,1.31-2.2,10.69,10.69,0,0,0,.54-7.4,13.25,13.25,0,0,0-3.91-6A19.86,19.86,0,0,0,152,37.94a29.72,29.72,0,0,0-6.39-1.78A46.28,46.28,0,0,0,133,36l-.76.09-.76.1-1.53.25c-1,.22-2,.43-3,.73a34.51,34.51,0,0,0-5.6,2.15,41.55,41.55,0,0,0-5,2.9,48.69,48.69,0,0,0-4.39,3.4c-1.37,1.19-2.64,2.43-3.85,3.69s-2.33,2.54-3.4,3.83A130.16,130.16,0,0,0,94.3,68.32l-2.11,3.49a28.21,28.21,0,0,0-1.81,3.54,41.4,41.4,0,0,0-2.23,6.8,29.23,29.23,0,0,0-.69,11.33,12.79,12.79,0,0,0,1.32,4,8.7,8.7,0,0,0,1.91,2.41,6.8,6.8,0,0,0,.89.65,5,5,0,0,0,.7.4Z"/><path class="cls-2" d="M92.94,101.17l.58-.27a5,5,0,0,0,.7-.4,6.8,6.8,0,0,0,.89-.65A8.7,8.7,0,0,0,97,97.44a12.79,12.79,0,0,0,1.32-4,29.23,29.23,0,0,0-.69-11.33,41.4,41.4,0,0,0-2.23-6.8,28.21,28.21,0,0,0-1.81-3.54L91.5,68.32A130.16,130.16,0,0,0,81.08,53.15q-1.6-1.93-3.39-3.83c-1.22-1.26-2.49-2.5-3.86-3.69a48.69,48.69,0,0,0-4.39-3.4,40.79,40.79,0,0,0-5-2.9,34.51,34.51,0,0,0-5.6-2.15c-1-.3-2-.51-3-.73l-1.54-.25-.76-.1L52.8,36a46.28,46.28,0,0,0-12.59.15,29.72,29.72,0,0,0-6.39,1.78A19.86,19.86,0,0,0,28,41.55a13.25,13.25,0,0,0-3.91,6,10.63,10.63,0,0,0,.55,7.4,12.13,12.13,0,0,0,1.3,2.2,14.41,14.41,0,0,0,1.7,1.87,17.43,17.43,0,0,0,4.05,2.72,26.74,26.74,0,0,0,9,2.41,42.32,42.32,0,0,0,4.48.2c1.48,0,2.94-.12,4.38-.26a39.37,39.37,0,0,0,8.44-2A68.78,68.78,0,0,0,65.48,59q3.61-1.74,7-3.65c4.46-2.54,8.61-5.19,12.53-7.8s7.61-5.19,11.09-7.65,6.76-4.82,9.83-7c6.14-4.41,11.47-8.22,15.87-11.23,4.57-2.79,10.2-6.17,16.92-9.63,3.36-1.72,7-3.43,10.95-5,2-.75,4-1.47,6.14-2.09a50.33,50.33,0,0,1,6.59-1.4,29.2,29.2,0,0,1,6.87-.16,19.88,19.88,0,0,1,6.65,1.85c.27.12.52.27.77.41l.76.43c.25.15.48.33.73.5l.72.5.68.56.35.29c.11.09.23.19.32.28a6,6,0,0,1,.55.58l.26.3.23.31.11.16.1.16.19.33.15.34a.89.89,0,0,1,.08.17l.06.17a5,5,0,0,1,.3,1.44l0,.37,0,.38a2.58,2.58,0,0,1,0,.39,2.5,2.5,0,0,1-.06.38,8.38,8.38,0,0,1-.46,1.56A16.28,16.28,0,0,1,177.31,21a24.5,24.5,0,0,1-3.09,2.33c-.55.35-1.11.69-1.68,1l-.44.24-.45.21-.89.43A35.16,35.16,0,0,1,167,26.62a40.56,40.56,0,0,1-4,1,56.62,56.62,0,0,1-8.43,1,94.81,94.81,0,0,1-12.63-.31c-4.17-.36-8.27-.92-12.29-1.56-2-.32-4-.67-6-1l-1.46-.27-.68-.14-.68-.16c-.92-.23-1.83-.49-2.75-.79-1.82-.58-3.62-1.25-5.39-1.94s-3.52-1.41-5.25-2.14c-6.89-2.91-13.41-5.85-19.58-8.46S75.83,7,70.42,5.08A109.93,109.93,0,0,0,55.49.93,41.64,41.64,0,0,0,43.77.14a16.4,16.4,0,0,0-7,2.16l-.5.31-.41.31-.36.26-.26.23-.49.43.51-.39.29-.22L35.87,3l.43-.27c.16-.1.34-.18.52-.28a16.19,16.19,0,0,1,7-1.71A41.5,41.5,0,0,1,55.22,2.1a112.87,112.87,0,0,1,14.5,4.75c5.27,2.06,10.94,4.57,17,7.38s12.46,5.91,19.35,9c1.72.78,3.48,1.55,5.28,2.29S115,27,116.91,27.66c1,.33,1.94.63,3,.91l.77.2.79.17,1.5.3c2,.39,4,.77,6,1.12,4.08.71,8.28,1.32,12.57,1.71a93,93,0,0,0,13.19.37,58.3,58.3,0,0,0,9.05-1.13,43.54,43.54,0,0,0,4.39-1.15,37.15,37.15,0,0,0,4.22-1.63l1-.49.5-.25.5-.27c.66-.37,1.3-.76,1.93-1.17a29.09,29.09,0,0,0,3.51-2.72,23.06,23.06,0,0,0,3-3.25,16.46,16.46,0,0,0,2.21-3.88,11.74,11.74,0,0,0,.61-2.22,3.85,3.85,0,0,0,.08-.58,5.87,5.87,0,0,0,0-.59v-.59l0-.6a8.49,8.49,0,0,0-.54-2.33l-.11-.28c0-.09-.08-.18-.13-.27l-.26-.53L184.42,8l-.16-.25-.17-.23-.35-.46-.38-.43a8.73,8.73,0,0,0-.81-.8,4.47,4.47,0,0,0-.41-.35l-.41-.32-.81-.65-.87-.58c-.3-.19-.58-.39-.88-.56l-.92-.49a6.58,6.58,0,0,0-.92-.46,22.88,22.88,0,0,0-7.82-2,31.7,31.7,0,0,0-7.59.39A50.64,50.64,0,0,0,155,2.54c-2.2.72-4.29,1.54-6.29,2.38a119.78,119.78,0,0,0-10.94,5.51c-6.63,3.78-12.1,7.45-16.52,10.47-4.57,2.79-10.11,6.34-16.44,10.5L94.68,38c-3.56,2.33-7.32,4.77-11.3,7.24s-8.14,5-12.57,7.35C68.6,53.81,66.32,55,64,56a69.27,69.27,0,0,1-7.26,2.86,36.5,36.5,0,0,1-7.63,1.67c-1.34.1-2.68.18-4,.18a38.57,38.57,0,0,1-4-.21,23.21,23.21,0,0,1-7.62-2.08,13.75,13.75,0,0,1-3.13-2.11A11.1,11.1,0,0,1,29.06,55a9.55,9.55,0,0,1-.89-1.5,7.06,7.06,0,0,1-.37-4.89,9.6,9.6,0,0,1,2.81-4.33,16.44,16.44,0,0,1,4.72-2.95,26,26,0,0,1,5.53-1.59,43.5,43.5,0,0,1,11.56-.31l.71.07c.24,0,.48.05.7.09l1.38.2c.9.18,1.81.34,2.69.59A31.89,31.89,0,0,1,63,42.19a40.26,40.26,0,0,1,4.66,2.55,52,52,0,0,1,4.2,3.07c1.32,1.09,2.57,2.23,3.77,3.39s2.31,2.38,3.38,3.59A136.93,136.93,0,0,1,89.84,69.31l2.26,3.4A28.16,28.16,0,0,1,94,76a41.82,41.82,0,0,1,2.48,6.47,28.7,28.7,0,0,1,1.28,11,12.54,12.54,0,0,1-1,3.89A8.53,8.53,0,0,1,95,99.73a6.87,6.87,0,0,1-.83.7,4.81,4.81,0,0,1-.66.43Z"/></g></g></svg>