<svg xmlns="http://www.w3.org/2000/svg" viewBox="0 0 408.72 45.39"><defs><style>.cls-1{fill:#957314;}</style></defs><g id="Layer_2" data-name="Layer 2"><g id="Layer_1-2" data-name="Layer 1"><path class="cls-1" d="M408.72,35.56l-11.39-.15-26.49-.34-43.66-.31c.43.64-.06,1.61-.67,2.1l44.33-.32Z"/><path class="cls-1" d="M77.43,34.76,53,35.08c-17.66.24-35.32.39-53,.73,17.66.33,35.32.48,53,.73l24.87.19A1.93,1.93,0,0,1,77.43,34.76Z"/><path class="cls-1" d="M188.41,17.69l.22.56c.08.16.18.4.21.46a5.7,5.7,0,0,0,.32.6,12.54,12.54,0,0,0,.71,1.12c.13.17.26.35.4.52a7.87,7.87,0,0,0,1.39,1.32,5.46,5.46,0,0,0,2.15,1,5.15,5.15,0,0,0,1,.07,4.52,4.52,0,0,0,2.09-.6l.39-.23a3.43,3.43,0,0,0,.48-.37h0a4.44,4.44,0,0,1-.59,0,2.8,2.8,0,0,1-.41,0,4.07,4.07,0,0,1-2.27-.69,4.74,4.74,0,0,1-1.42-1.8c-.14-.26-.26-.54-.39-.85s-.23-.62-.35-.95l-.16-.51c0-.12,0-.08,0-.1v0a.06.06,0,0,1,.05,0h0s0,0,0-.08,0,0,.1,0h.28l.55,0,1,.08a5.79,5.79,0,0,1,3.07,1,5.45,5.45,0,0,1,1.28,1.49c.1.17.18.33.26.47.28.58.42.94.43.94h0v0l0,0h0a7.84,7.84,0,0,0,.15-1.05,2.53,2.53,0,0,0,0-.28,5.41,5.41,0,0,0-.63-2.75,5.59,5.59,0,0,0-1.5-1.77,8,8,0,0,0-2.3-1.22c-.42-.15-.84-.27-1.27-.38l-.65-.14a8.24,8.24,0,0,0-.83-.13c-1.61-.18-3.36-.31-5.14-.46H187A46.26,46.26,0,0,0,188.41,17.69Z"/><path class="cls-1" d="M206,17.08a5.51,5.51,0,0,0-.63,2.75c0,.1,0,.19,0,.28a6.72,6.72,0,0,0,.16,1.05h0v0h0s.14-.36.43-.94c.07-.14.16-.3.26-.47a5.28,5.28,0,0,1,1.28-1.49,5.76,5.76,0,0,1,3.07-1l1-.08.56,0h.27c.09,0,.14,0,.11,0s0,.09,0,.08h0a.06.06,0,0,1,0,0l0,0s0,0,0,.1l-.16.51c-.12.33-.23.65-.36.95s-.25.59-.38.85a4.94,4.94,0,0,1-1.42,1.8,4.09,4.09,0,0,1-2.27.69,2.93,2.93,0,0,1-.42,0,4.63,4.63,0,0,1-.59,0h0a4.14,4.14,0,0,0,.49.37l.39.23a4.44,4.44,0,0,0,2.08.6,5.3,5.3,0,0,0,1-.07l.54-.14a5.72,5.72,0,0,0,1.6-.84A7.54,7.54,0,0,0,214.49,21l.41-.52a12.47,12.47,0,0,0,.7-1.12,5.7,5.7,0,0,0,.32-.6l.21-.46.22-.56A49,49,0,0,0,217.8,13h-.15c-1.78.15-3.52.28-5.13.46-.49.06-.59.08-.84.13l-.65.14c-.43.11-.85.23-1.27.38a7.85,7.85,0,0,0-2.29,1.22A5.5,5.5,0,0,0,206,17.08Z"/><path class="cls-1" d="M232,39.78c2.56-.11,2.38-4.09-.19-4S229.47,39.9,232,39.78Z"/><path class="cls-1" d="M143.1,32.49a41.93,41.93,0,0,0-17.56-.74,19.84,19.84,0,0,0-6,2.19A13.17,13.17,0,0,0,117,35.87c-4.67.62-9,1.76-12.93,2.62a59.7,59.7,0,0,1-7,1.17,31.71,31.71,0,0,1-6.15,0,33.51,33.51,0,0,1-8.77-2c-2-.75-3.11-1.28-3.12-1.27s1,.68,2.93,1.69a31.46,31.46,0,0,0,8.76,3.06,32,32,0,0,0,6.47.5,52.72,52.72,0,0,0,7.36-.74c3.24-.53,6.62-1.25,10.12-1.8l0,.11.19,0,.07-.11c1.94-.29,3.91-.54,5.92-.66a50.25,50.25,0,0,1,16,1.53c4.86,1.24,9.18,2.9,13,3.91a39.05,39.05,0,0,0,9.12,1.5,30.57,30.57,0,0,0,3.38-.07,40.05,40.05,0,0,1-12.05-2.82c-3.59-1.33-7.75-3.32-12.73-4.9a45.67,45.67,0,0,0-16.89-2.07q-1,.06-2.1.18a13.19,13.19,0,0,1,1.68-.86,19.34,19.34,0,0,1,5.9-1.36,42.08,42.08,0,0,1,16.37,2.41c1.54.51,3,1.15,4.7,1.87s3.43,1.38,5.31,2c1.65.52,16.92,9.58,26.65,2.91-14,0-29.14-8.09-30.82-8.64S144.78,32.87,143.1,32.49Z"/><path class="cls-1" d="M133.57,30.53a5.66,5.66,0,0,1,1.67-1.12,7.49,7.49,0,0,1,3.13-.63,18.33,18.33,0,0,1,4.38.62c3.28.78,16.85,6,21.67,7.46l4.9.94c-2.29-1.07-5.15-4.4-11.54-6.66a49.12,49.12,0,0,0-14.91-3.52,18.16,18.16,0,0,0-4.72.11A8.17,8.17,0,0,0,134.93,29a6.32,6.32,0,0,0-1.48,1.46,5.82,5.82,0,0,0-.38.59A6.89,6.89,0,0,1,133.57,30.53Z"/><path class="cls-1" d="M156.35,18.57a8.18,8.18,0,0,0,.71,2.39,5.81,5.81,0,0,0,1.38,1.76,5.4,5.4,0,0,0,2.72,1.16,7.22,7.22,0,0,0,1,.05s-.31-.2-.8-.59a5.6,5.6,0,0,1-1.55-1.81,5.66,5.66,0,0,1-.39-3.09c0-.32.07-.63.13-1l.07-.52a2,2,0,0,1,.08-.37.06.06,0,0,1,.08,0s0,0,0-.08l0,0s0,0,.1,0l.44.27c.3.17.58.34.83.51a5.42,5.42,0,0,1,2.14,2.2,3.85,3.85,0,0,1,.23,2.27c-.11.6-.23.95-.22.95a5.11,5.11,0,0,0,.73-.71,4.24,4.24,0,0,0,1.07-2.79,5.09,5.09,0,0,0-.5-2.2,8.29,8.29,0,0,0-1.39-2c-.29-.31-.6-.6-.92-.88s-.33-.29-.5-.42l-.4-.28-.48-.32c-1.32-.85-2.71-1.51-4.16-2.27l0,.14c-.21,1.69-.4,3.36-.54,4.91,0,.47,0,.56,0,.8s0,.43,0,.65A10.53,10.53,0,0,0,156.35,18.57Z"/><path class="cls-1" d="M165.61,24.94a6.3,6.3,0,0,0,.46.73,7.88,7.88,0,0,1,0-.85,4.86,4.86,0,0,1,.52-2,4.65,4.65,0,0,1,1.94-1.78c.24-.14.49-.27.76-.4l.41-.2c.11,0,.34-.18.29-.13s0,.06,0,.06a.07.07,0,0,1,.08,0h0s0,0,0,.09l0,.43c0,.29,0,.57,0,.84a4.75,4.75,0,0,1-.48,2.57,3.29,3.29,0,0,1-1.48,1.27,6.35,6.35,0,0,1-.77.32,4.3,4.3,0,0,0,.86.16,3.67,3.67,0,0,0,2.48-.63A4.2,4.2,0,0,0,172.12,24a6.58,6.58,0,0,0,.74-2c.07-.35.13-.71.17-1.07,0-.18,0-.37,0-.55s0-.27,0-.42l0-.49c-.06-1.34-.28-2.64-.48-4l-.09,0c-1.28.7-2.55,1.38-3.69,2a4.42,4.42,0,0,0-.58.38c-.15.1-.31.21-.45.32a9.3,9.3,0,0,0-.83.7,7,7,0,0,0-1.32,1.67,4.76,4.76,0,0,0-.54,1.83A4.47,4.47,0,0,0,165.61,24.94Z"/><path class="cls-1" d="M151.31,26.73l.27.31.39.39a10.67,10.67,0,0,0,.82.71,7.16,7.16,0,0,0,1.83,1.05,4.34,4.34,0,0,0,1.87.3,3.38,3.38,0,0,0,2.22-1,3.73,3.73,0,0,0,.52-.65,6.64,6.64,0,0,1-.77.23,3.23,3.23,0,0,1-1.91-.06,5.12,5.12,0,0,1-2-1.65c-.16-.22-.34-.44-.5-.67l-.26-.36c-.06-.09,0-.06,0-.08h0c0-.05.06,0,.06,0a.06.06,0,0,1,0-.06c-.06,0,.19-.06.31-.09l.42-.09c.28-.07.55-.12.81-.16a4.61,4.61,0,0,1,2.6.16,4.75,4.75,0,0,1,1.65,1.19c.37.38.56.63.56.62a5.27,5.27,0,0,0-.13-.83,4.82,4.82,0,0,0-1.22-2.2,5,5,0,0,0-1.6-1.06,6.72,6.72,0,0,0-2-.46,7.53,7.53,0,0,0-1.06,0l-.53,0-.67.07c-1.28.2-2.65.46-4,.72l-.11,0c.76,1.16,1.45,2.28,2.28,3.33Z"/><path class="cls-1" d="M164.15,25.91c-2.85-1.26-4.81,3.15-2,4.42S167,27.17,164.15,25.91Z"/><path class="cls-1" d="M172.91,35.81c-2.57-.12-2.75,3.86-.18,4S175.47,35.92,172.91,35.81Z"/><path class="cls-1" d="M172.93,28.52a4.38,4.38,0,0,1,.21-1.17c.21-.68.87-1.17,1.61-1.79,1.83-1.55,5-2.49,9.82-2.37l5.31.64.72.15,1.14.19a18.31,18.31,0,0,1-9.84-12.86,10.66,10.66,0,0,1-.15-4.92,3.9,3.9,0,0,0-1.63,2.42,3,3,0,0,0-.09.5,11.54,11.54,0,0,0,.24,5c0,.09,0,.18.07.26l0,0a.07.07,0,0,0,0,.05,10.41,10.41,0,0,0,.77,2.26,1.4,1.4,0,0,1,.4.83h0l.45.64.11.18a4,4,0,0,0,.31.41,1.61,1.61,0,0,0,.18.24c.13.17.26.32.4.47-.36,0-.72,0-1.08,0a11.68,11.68,0,0,0-4.68,1.3,10,10,0,0,0-3.42,2.76,5.42,5.42,0,0,0-1.19,3.45A4.23,4.23,0,0,0,172.93,28.52Z"/><path class="cls-1" d="M198.32,30.79a18,18,0,0,0-4.67-3.65,17.24,17.24,0,0,0-5-1.81,17.41,17.41,0,0,0-3.74-.29,18.33,18.33,0,0,0-5.42,1A23.67,23.67,0,0,0,175,28.22c-1.3.81-2.53,1.62-3.94,2.53l-1.73,1.14,5,.08c.81,0,1.36.05,2,.07a11.82,11.82,0,0,1,1.48.23,16.5,16.5,0,0,1,3.07,1,32.45,32.45,0,0,1,3.92,2.18c2.49,1.57,4.79,3.24,7.19,4a7.47,7.47,0,0,0,1.77.34,5.31,5.31,0,0,0,1.62-.13,5.43,5.43,0,0,0,2.21-1.11A8.9,8.9,0,0,0,199,37.14a10.08,10.08,0,0,1-1.66,1,5.26,5.26,0,0,1-2.07.49,5,5,0,0,1-1.92-.42,5.91,5.91,0,0,1-.67-.33c-1.82-1-3.71-2.87-6.11-4.82a26.65,26.65,0,0,0-4.13-2.83c-.39-.21-.81-.41-1.23-.6l-.32-.14-.09,0h0v0s0,0,0,0h0s-.08,0,0-.07a18.8,18.8,0,0,1,4.34-1.19,17.66,17.66,0,0,1,7.8.7,21.59,21.59,0,0,1,5,2.39c1.12.74,1.7,1.24,1.7,1.23h0A14.07,14.07,0,0,0,198.32,30.79Z"/><path class="cls-1" d="M200.06,15.82a8.21,8.21,0,0,0,1.17.43h0s-.29-.34-.71-1a4.71,4.71,0,0,1-.87-2.64A6.84,6.84,0,0,1,201,9.13c.21-.32.44-.65.68-1l.38-.51c.08-.1.07-.08.08-.08h0a.09.09,0,0,1,.07.07v0a.08.08,0,0,1,.07,0v.26h0l0,0v0h0l.08-.12.09.12h0v0h0V7.57a.08.08,0,0,1,.07,0,0,0,0,0,0,0,0v0a.07.07,0,0,1,.07-.07h0s0,0,.08.08l.39.51c.24.34.47.67.68,1a6.82,6.82,0,0,1,1.29,3.52,4.71,4.71,0,0,1-.86,2.64c-.42.62-.72,1-.71,1h0a7.28,7.28,0,0,0,1.17-.43,5.28,5.28,0,0,0,2.57-2.6,6.19,6.19,0,0,0,.52-2.71,9.91,9.91,0,0,0-.55-3c-.17-.48-.37-1-.59-1.44l-.36-.7c0-.08-.19-.34-.3-.52l-.38-.59c-1-1.42-2-2.71-3.13-4.07V0h0V0h0l-.09.11L202.3,0h0V0l0,0h0V.23c-1.1,1.36-2.18,2.65-3.12,4.07l-.38.59c-.12.18-.27.44-.31.52s-.24.46-.35.7a13.62,13.62,0,0,0-.59,1.44,9.61,9.61,0,0,0-.55,3,6.05,6.05,0,0,0,.52,2.71A5.27,5.27,0,0,0,200.06,15.82Z"/><path class="cls-1" d="M214.16,24l.73-.15,5.31-.64c4.77-.12,8,.82,9.81,2.37a4.6,4.6,0,0,1,1.62,1.79,4.1,4.1,0,0,1,.2,1.17,3.88,3.88,0,0,0,.28-1.3,5.42,5.42,0,0,0-1.19-3.45A9.93,9.93,0,0,0,227.51,21a11.73,11.73,0,0,0-4.68-1.3c-.36,0-.73,0-1.09,0,.14-.15.27-.3.41-.47l.18-.24.31-.41.11-.18.45-.64h0a1.53,1.53,0,0,1,.4-.83,10,10,0,0,0,.78-2.26.43.43,0,0,0,0-.05v0c0-.08.05-.17.08-.26a11.69,11.69,0,0,0,.24-5,3,3,0,0,0-.09-.5A3.94,3.94,0,0,0,223,6.39a10.8,10.8,0,0,1-.15,4.92A18.34,18.34,0,0,1,213,24.17Z"/><path class="cls-1" d="M313.91,39.7a31.71,31.71,0,0,1-6.15,0,59.21,59.21,0,0,1-7-1.17c-3.94-.86-8.26-2-12.94-2.62a13.08,13.08,0,0,0-2.54-1.93,19.84,19.84,0,0,0-6-2.19,41.93,41.93,0,0,0-17.56.74c-1.68.38-3.48,1-5.14,1.52s-16.82,8.64-30.82,8.64c9.73,6.67,25-2.39,26.66-2.91,1.88-.61,3.63-1.29,5.31-2s3.16-1.36,4.69-1.87a42.1,42.1,0,0,1,16.37-2.41,19.27,19.27,0,0,1,5.9,1.36,12.55,12.55,0,0,1,1.68.86q-1-.12-2.1-.18a45.62,45.62,0,0,0-16.88,2.07c-5,1.58-9.14,3.57-12.74,4.9a40,40,0,0,1-12,2.82,30.72,30.72,0,0,0,3.38.07,39.05,39.05,0,0,0,9.12-1.5c3.78-1,8.11-2.67,13-3.91a50.28,50.28,0,0,1,16-1.53c2,.12,4,.37,5.93.66l.06.11.2,0a.37.37,0,0,1-.05-.11c3.5.55,6.87,1.27,10.11,1.8a52.86,52.86,0,0,0,7.37.74,32.07,32.07,0,0,0,6.47-.5,31.58,31.58,0,0,0,8.76-3.06c1.93-1,2.91-1.7,2.92-1.69s-1.09.52-3.11,1.27A33.7,33.7,0,0,1,313.91,39.7Z"/><path class="cls-1" d="M235.44,37.8l4.91-.94c4.81-1.45,18.39-6.68,21.67-7.46a18.25,18.25,0,0,1,4.37-.62,7.45,7.45,0,0,1,3.13.63,5.88,5.88,0,0,1,1.68,1.12,5.37,5.37,0,0,1,.49.51,5.82,5.82,0,0,0-.38-.59A6.12,6.12,0,0,0,269.83,29a8.12,8.12,0,0,0-3.21-1.26,18.16,18.16,0,0,0-4.72-.11c-3.33.26-9.72,1.88-14.91,3.52C240.6,33.4,237.74,36.73,235.44,37.8Z"/><path class="cls-1" d="M241.39,22.72a6.54,6.54,0,0,1-.22-.95,3.84,3.84,0,0,1,.22-2.27,5.48,5.48,0,0,1,2.14-2.2c.26-.17.54-.34.83-.51l.45-.27c.11-.06.08,0,.1,0l0,0a.07.07,0,0,1,0,.08s0,0,.07,0,.05.22.08.37l.08.52c.05.35.09.66.13,1a5.56,5.56,0,0,1-.4,3.09,5.58,5.58,0,0,1-1.54,1.81c-.5.39-.81.58-.8.59a7.07,7.07,0,0,0,1-.05,5.4,5.4,0,0,0,2.72-1.16A5.52,5.52,0,0,0,247.7,21a7.89,7.89,0,0,0,.71-2.39,8.81,8.81,0,0,0,.12-1.26c0-.22,0-.43,0-.65a8,8,0,0,0,0-.8c-.13-1.55-.33-3.22-.53-4.91l0-.14c-1.45.76-2.85,1.42-4.17,2.27l-.48.32a4.21,4.21,0,0,0-.39.28,5,5,0,0,0-.5.42,9.62,9.62,0,0,0-.92.88,8.62,8.62,0,0,0-1.4,2,5.24,5.24,0,0,0-.5,2.2A4.29,4.29,0,0,0,240.66,22,4.53,4.53,0,0,0,241.39,22.72Z"/><path class="cls-1" d="M231.74,21a7.69,7.69,0,0,0,.17,1.07,6.3,6.3,0,0,0,.73,2,4.2,4.2,0,0,0,1.28,1.44,3.68,3.68,0,0,0,2.49.63,4.06,4.06,0,0,0,.85-.16,7.28,7.28,0,0,1-.77-.32A3.27,3.27,0,0,1,235,24.32a4.66,4.66,0,0,1-.49-2.57q0-.41.06-.84l0-.43c0-.11,0-.07,0-.09h0a.05.05,0,0,1,.07,0s0,0,0-.06.18.08.29.13l.41.2c.27.13.51.26.75.4a4.75,4.75,0,0,1,1.95,1.78,4.68,4.68,0,0,1,.51,2,7.88,7.88,0,0,1,0,.85,4.39,4.39,0,0,0,.47-.73,4.56,4.56,0,0,0,.54-2.47,4.61,4.61,0,0,0-.55-1.83A6.75,6.75,0,0,0,237.83,19a8.07,8.07,0,0,0-.83-.7l-.44-.32a6.54,6.54,0,0,0-.58-.38c-1.15-.66-2.41-1.34-3.69-2l-.1,0c-.2,1.38-.42,2.68-.48,4v.91C231.71,20.59,231.73,20.78,231.74,21Z"/><path class="cls-1" d="M246,23.72a4.73,4.73,0,0,0-1.22,2.2,6.6,6.6,0,0,0-.14.83s.2-.24.56-.62a4.7,4.7,0,0,1,1.66-1.19,4.61,4.61,0,0,1,2.6-.16c.26,0,.52.09.8.16l.43.09c.12,0,.36.09.3.09a0,0,0,0,1,0,.06s0,0,.06,0h0s0,0,0,.08l-.25.36-.51.67a5,5,0,0,1-2,1.65,3.19,3.19,0,0,1-1.9.06,6.51,6.51,0,0,1-.78-.23,3.73,3.73,0,0,0,.52.65,3.39,3.39,0,0,0,2.23,1,4.39,4.39,0,0,0,1.87-.3A7.16,7.16,0,0,0,252,28.14a10.55,10.55,0,0,0,.81-.71q.21-.2.39-.39l.28-.31.3-.39A39.82,39.82,0,0,0,256,23l-.11,0c-1.38-.26-2.75-.52-4-.72l-.66-.07-.53,0a7.67,7.67,0,0,0-1.07,0,6.72,6.72,0,0,0-2,.46A4.91,4.91,0,0,0,246,23.72Z"/><path class="cls-1" d="M242.57,30.33c2.85-1.27.9-5.68-1.95-4.42S239.73,31.59,242.57,30.33Z"/><path class="cls-1" d="M233.71,30.75c-1.41-.91-2.64-1.72-3.94-2.53a23.38,23.38,0,0,0-4.46-2.16,18.27,18.27,0,0,0-5.41-1,17.14,17.14,0,0,0-8.79,2.1,17.91,17.91,0,0,0-4.66,3.65,15.11,15.11,0,0,0-1.34,1.66h0s.58-.49,1.71-1.23a21.49,21.49,0,0,1,5-2.39,17.69,17.69,0,0,1,7.8-.7A18.66,18.66,0,0,1,224,29.32c0,.07,0,.07,0,.07h0s0,0,0,0v0h0l-.08,0-.32.14q-.65.29-1.23.6a26.76,26.76,0,0,0-4.14,2.83c-2.4,1.95-4.28,3.83-6.11,4.82a5.27,5.27,0,0,1-2.58.75,5.21,5.21,0,0,1-2.07-.49,9.53,9.53,0,0,1-1.66-1,8,8,0,0,0,1.37,1.46,5.48,5.48,0,0,0,2.22,1.11,5.31,5.31,0,0,0,1.62.13,7.67,7.67,0,0,0,1.77-.34c2.4-.77,4.7-2.44,7.19-4a31,31,0,0,1,3.92-2.18,16.21,16.21,0,0,1,3.07-1,11.65,11.65,0,0,1,1.47-.23c.67,0,1.21-.06,2-.07l5-.08Z"/><path class="cls-1" d="M219.45,42.35a16.56,16.56,0,0,1-7.07.48q-.51-.07-1-.18a12.82,12.82,0,0,1-3.07-1c-6-4.05-5.67-18.63-5.9-21.72v-.23h0a.34.34,0,0,1,0,.1.34.34,0,0,0,0-.1h0v.23c-.22,3.09.12,17.67-5.9,21.72a12.89,12.89,0,0,1-3.06,1l-1,.18a16.5,16.5,0,0,1-7.06-.48,9.65,9.65,0,0,1-3.95-2.2,7,7,0,0,1-1-1.25,7.33,7.33,0,0,0,.79,1.51,10.17,10.17,0,0,0,3.82,3.13,17.28,17.28,0,0,0,7.73,1.69,15.54,15.54,0,0,0,5.05-.88,9.63,9.63,0,0,0,4.66-3.42A9.67,9.67,0,0,0,207,44.35a15.54,15.54,0,0,0,5.05.88,17.25,17.25,0,0,0,7.73-1.69,10,10,0,0,0,3.82-3.13,6.21,6.21,0,0,0,.79-1.51,6.56,6.56,0,0,1-1,1.25A9.79,9.79,0,0,1,219.45,42.35Z"/><path class="cls-1" d="M325,33.26a1.5,1.5,0,1,0,1.5,1.5A1.5,1.5,0,0,0,325,33.26Z"/><path class="cls-1" d="M81.51,34.76a1.5,1.5,0,1,0-1.5,1.5A1.5,1.5,0,0,0,81.51,34.76Z"/></g></g></svg>