<svg xmlns="http://www.w3.org/2000/svg" viewBox="0 0 650 717"><defs><style>.cls-1{stroke:#AA3609;stroke-linecap:round;stroke-linejoin:round;stroke-width:40px;}.cls-2{fill:#AA3609;}</style></defs><g id="Layer_2" data-name="Layer 2"><g id="Layer_1-2" data-name="Layer 1"><path class="cls-1" d="M191.67,25V125"/><path class="cls-1" d="M458.33,25V125"/><path class="cls-1" d="M458.33,75C569.33,81,625,123.33,625,280V486c0,137.33-33.33,206-200,206H225C58.33,692,25,623.33,25,486V280C25,123.33,80.67,81.33,191.67,75Z"/><path class="cls-1" d="M616.67,545H33.33"/><path class="cls-2" d="M251,472q-9.75,0-16-6.09a20.26,20.26,0,0,1-6.27-15.15V275.21l4.88,7.66L208.2,301.68A19.16,19.16,0,0,1,196,305.51a20,20,0,0,1-14.62-6.27,20.44,20.44,0,0,1-6.27-15q0-11.13,10.79-18.1l50.15-33.43a22.58,22.58,0,0,1,7.83-3.48,35,35,0,0,1,8.18-1.05q10.1,0,16,6.1A20.86,20.86,0,0,1,274,249.44V450.71a20,20,0,0,1-6.44,15.15Q261.12,472,251,472Z"/><path class="cls-2" d="M372.9,473.7A22,22,0,0,1,357.76,468a18.53,18.53,0,0,1-6.45-14.45,22.23,22.23,0,0,1,2.09-9.4l85.32-184.91,3.83,9.41H341.91a19.05,19.05,0,0,1-19.5-19.5A17.94,17.94,0,0,1,328,235.69a19.23,19.23,0,0,1,13.93-5.4H463.09A23.8,23.8,0,0,1,478.94,236a18.51,18.51,0,0,1,6.79,14.8,23.86,23.86,0,0,1-2.09,9.4L392.06,460.46a19.78,19.78,0,0,1-7.84,9.75A20.59,20.59,0,0,1,372.9,473.7Z"/></g></g></svg>