<?xml version="1.0" standalone="no"?>
<!DOCTYPE svg PUBLIC "-//W3C//DTD SVG 20010904//EN"
 "http://www.w3.org/TR/2001/REC-SVG-20010904/DTD/svg10.dtd">
<svg version="1.0" xmlns="http://www.w3.org/2000/svg"
 width="512.000000pt" height="512.000000pt" 
 preserveAspectRatio="xMidYMid meet">

<g transform="translate(0.000000,512.000000) scale(0.100000,-0.100000)"
 stroke="none">
<path d="M2495 4466 c-72 -33 -95 -83 -95 -207 l0 -89 -399 0 -399 0 -4 99
c-2 82 -7 105 -24 128 -73 98 -195 98 -268 0 -17 -23 -22 -46 -24 -126 l-4
-98 -126 -6 c-141 -6 -210 -25 -294 -78 -60 -39 -132 -118 -164 -181 -56 -111
-54 -49 -54 -1500 0 -956 3 -1352 11 -1390 34 -156 149 -289 302 -349 l62 -24
1515 -3 c1065 -2 1531 1 1568 9 129 26 267 131 326 247 58 114 56 60 56 1504
0 931 -3 1343 -11 1380 -14 68 -59 162 -100 212 -51 61 -144 124 -217 147 -45
14 -107 22 -189 26 l-121 6 -4 103 c-3 111 -13 134 -72 178 -39 29 -133 29
-172 0 -59 -44 -69 -67 -72 -180 l-4 -104 -399 0 -399 0 0 90 c0 104 -18 153
-71 191 -39 27 -112 35 -154 15z m-1215 -722 c0 -91 3 -112 22 -146 63 -112
222 -109 277 6 17 34 21 62 21 144 l0 102 400 0 400 0 0 -106 c0 -125 14 -163
72 -202 81 -53 186 -24 227 62 17 34 21 62 21 144 l0 102 400 0 400 0 0 -100
c0 -119 12 -156 66 -196 31 -24 47 -29 94 -29 46 0 63 5 92 27 55 42 68 80 68
198 l0 102 103 -4 c86 -3 108 -7 141 -27 70 -44 76 -69 76 -363 l0 -258 -1600
0 -1600 0 0 261 c0 216 3 267 16 294 33 70 88 94 217 95 l87 0 0 -106z m2878
-1773 c-3 -901 -3 -910 -24 -937 -11 -15 -33 -37 -48 -48 -27 -21 -28 -21
-1526 -21 -1498 0 -1499 0 -1526 21 -15 11 -37 33 -48 48 -21 27 -21 36 -24
937 l-2 909 1600 0 1600 0 -2 -909z"/>
<path d="M1440 2240 l0 -160 160 0 160 0 0 160 0 160 -160 0 -160 0 0 -160z"/>
<path d="M2080 2240 l0 -160 160 0 160 0 0 160 0 160 -160 0 -160 0 0 -160z"/>
<path d="M2720 2240 l0 -160 160 0 160 0 0 160 0 160 -160 0 -160 0 0 -160z"/>
<path d="M3360 2240 l0 -160 160 0 160 0 0 160 0 160 -160 0 -160 0 0 -160z"/>
<path d="M1440 1600 l0 -160 160 0 160 0 0 160 0 160 -160 0 -160 0 0 -160z"/>
<path d="M2080 1600 l0 -160 160 0 160 0 0 160 0 160 -160 0 -160 0 0 -160z"/>
<path d="M2720 1600 l0 -160 160 0 160 0 0 160 0 160 -160 0 -160 0 0 -160z"/>
<path d="M3360 1600 l0 -160 160 0 160 0 0 160 0 160 -160 0 -160 0 0 -160z"/>
</g>
</svg>
