<svg xmlns="http://www.w3.org/2000/svg" viewBox="0 0 415.99 416.38"><g id="Layer_2" data-name="Layer 2"><g id="Layer_1-2" data-name="Layer 1"><path d="M68.76,251.66c0-1.51.43-3.13-1.27-5.27l-25,32.44c-1.6,2.08-.63,3.9.63,5.69,7.08,10.09,14.14,20.2,21.27,30.26.85,1.2,1.52,3.48,3.18,3,2.06-.63,1.13-3,1.13-4.61Q68.85,282.39,68.76,251.66Z"/><path d="M78.5,282.4h-.07q0-21.63,0-43.25c0-4-.18-7.77-4.7-9.45s-7.49.74-9.91,3.83C53.12,247.2,42.56,261,32,274.74c-2.85,3.71-3.17,7.74-.49,11.62C42,301.5,51.78,317.1,63.75,331.14c2.58,3,5.54,5.53,9.9,3.93s4.88-5.39,4.87-9.42C78.48,311.24,78.5,296.82,78.5,282.4Zm-6.15,49.74c-3.24,1-5.14-1.33-6.91-3.53-10.87-13.55-20.77-27.79-30.37-42.25-2.35-3.55-2.66-7,.06-10.59q15.34-20,30.65-40.11c1.66-2.17,3.81-3.81,6.71-2.92,3.23,1,3,3.95,3,6.52,0,14.4,0,28.81,0,43.22q0,21.34,0,42.69C75.48,327.93,75.78,331.08,72.35,332.14Z"/><path d="M69.37,90.46c-5.05.15-9.27,4.71-9.27,10A9.8,9.8,0,0,0,70,110.35c4.85-.07,9.29-4.85,9.29-10A9.8,9.8,0,0,0,69.37,90.46Z"/><path d="M114.85,99.05c-.12-5.78-3.61-9-9.77-8.92-5.85.05-9.84,4.09-9.65,9.8.17,5.17,5.22,9.7,10.49,9.43C110.94,109.09,115,104.46,114.85,99.05Z"/><path d="M127.88,193.76a10,10,0,0,0-9.44,9.9c-.13,5.1,4.22,9.11,9.9,9.15s9.55-3.81,9.53-9.38A9.42,9.42,0,0,0,127.88,193.76Z"/><path d="M382.44,110.8c-36.15.26-72.31.12-108.46.12-1.91,0-3.83,0-5.74-.13-2.5-.11-3.82-1.39-3.74-4,.08-2.38,1.42-3.4,3.68-3.44,1.74,0,3.47-.07,5.21-.07q36.76,0,73.53,0c4.16,0,7.69-1,9.24-5.25s-.75-6.85-3.7-9.45c-3.39-3-6.53-6.23-9.69-9.45-19.74-20.07-41.48-37-69.16-44.85-10.79-3.08-10.72-3.33-10.72-14.52,0-11.51-1.44-13.68-12.77-15.77-29.35-5.41-58.71-5.57-88,.87-9.34,2.06-11.43,4.9-11,14.49,1.47,35.26-.77,70.56,1.26,105.81A16.53,16.53,0,0,1,145.15,140c-7.93,5.79-17.1,7.36-26.75,6.12-1.2-.15-3.16-.16-3.23-2,0-1.4,1.62-1.7,2.67-2.11,8.52-3.29,15.18-9.1,21-15.83,3.84-4.42,9-8.58,9.47-14.65,1.27-15.42-.27-30.5-8.07-44.41-9.2-16.37-24.19-24.92-41.16-30.78-3.77-1.31-7.37-.58-10.84,1.83-32.63,22.61-55.74,53-71.74,88.89a188.93,188.93,0,0,0-16.2,67,227.14,227.14,0,0,0,9.38,78.22c1.23,4.08,2.83,7.92,7.62,8,4.45.07,9-.31,10.68-6.08.68-2.37,2.77-4.36,4.36-6.42Q54,239.73,75.63,211.68c4.17-5.4,4.67-11.21,1.54-17.08-1.67-3.14-1.14-5.16,1.48-7.12,1.39-1,2.57-2.39,4-3.3,2-1.2,3-5,5.54-3.66,2,1.08.84,4.52.84,6.89q0,80.84,0,161.66c0,3.29-.4,6.77,2.15,9.39a72.86,72.86,0,0,0,17.19,13.42c4.13,2.24,7.42.66,9.89-2.87,1.44-2.05,1.58-4.54,1.58-7q0-20.87,0-41.72c0-2.29.05-4.76-1.34-6.54-3.35-4.3-1.37-7.21,2-10a30.75,30.75,0,0,1,2.75-2.39c1.64-1.05,2.7-4.05,5-2.79,1.92,1.07,1.21,3.8,1.22,5.84.06,10.6-.05,21.21.11,31.81.09,6,3.31,9.36,9.15,8.78,6.95-.69,13.88-.42,20.81-.65,4.53-.15,7.27-2.48,7.29-7.11.06-17.38.29-34.77-.24-52.13-.13-4.37.67-7.44,3.87-9.93,1.58-1.22,3.07-3.82,5.07-3,2.18.89,1.11,3.72,1.11,5.69.07,20.16,0,40.32.05,60.49,0,10.32-.67,11.05-11.15,11.41-1.39.05-2.78,0-4.17,0-8,0-16-.16-24,.05-5.59.15-7.69,2.16-7.76,7.63-.18,13-.08,26.07-.06,39.11,0,3.69,1.68,6.35,5.24,7.58,18.92,6.56,38,12.36,58.33,12.25,7.79,0,9.49-1.82,9.49-9.58q0-157.74,0-315.48c0-6.42-.41-12.86.53-19.27.39-2.69-.62-5.14-2-7.42-4-6.83-4-6.82,1.73-12a19.05,19.05,0,0,1,2.36-2.05c2.13-1.37,3.63-5.13,6.14-4.07,2.84,1.22,1.52,5,1.53,7.63.06,58.23.05,116.46.05,186.76-.53,46.85.78,105.77-.54,164.68-.18,8,2.43,10.63,10.46,10.79,20.39.38,39.26-6.62,58.38-12.25,4.75-1.4,6.55-5.33,6.54-10.17,0-21.38.06-42.76,0-64.14,0-7.3-2.88-10-10.24-10.09-9.56-.1-19.12.06-28.68-.08-8.32-.12-8.84-.79-8.84-9,0-17.73.41-35.48-.37-53.17-.26-5.78-.39-10.1,5.29-12.81,1.62-.77,2.65-3.51,4.74-2.32,1.84,1.05,1.06,3.5,1.06,5.33,0,19.3,0,38.59,0,57.88,0,6.93,2.5,9.48,9.37,9.64,5.21.12,10.43.07,15.64,0,9.68-.07,12.05-2.39,12.06-12,0-24,0-48,0-72,0-3.84.07-7.72-1.14-11.36-1.34-4.05.17-6.64,3.3-8.9a45.25,45.25,0,0,0,3.89-3.45c.76-.7,1.45-1.79,2.56-1.52,1.55.38,1.26,1.91,1.28,3.06.22,12.33.77,24.68.51,37-.79,38.24-.35,76.48-.4,114.71,0,8.31,6.06,11.7,13.49,7.82,4.64-2.43,8.57-5.91,12.81-8.94,5.5-3.93,7.85-8.8,7.81-15.86-.28-51.28-.16-102.56-.19-153.83,0-1.72.32-4-.61-5.07-4.79-5.3-.43-8,2.87-10.85,1.86-1.61,3.65-4.84,6.29-3.57,2.27,1.1,1.12,4.45,1.12,6.79q.06,81.87,0,163.73c0,2.44,0,4.87.05,7.31.07,3.84.87,7.48,4.87,9,3.77,1.42,7.15.18,9.94-2.7,2.42-2.5,4.85-5,7.33-7.42,5.76-5.66,8-12.24,8-20.56-.34-49.71-.17-99.42-.16-149.13,0-1.74,0-3.48.14-5.21.11-1.46.84-2.45,2.38-1.44a34.74,34.74,0,0,1,9.12,8.47c1.63,2.25-1.25,4.08-1.35,6.28s-.39,4.15-.39,6.22q0,48.76,0,97.52a35.86,35.86,0,0,0,.41,6.22,7.43,7.43,0,0,0,7.17,6.46c3.46.32,5.88-1.46,7.37-4.68,12.5-27,19.5-55.3,19.7-85.12a208.14,208.14,0,0,0-2.77-37.83,217.21,217.21,0,0,0-17.31-55.51C393.05,112.91,389.08,110.75,382.44,110.8ZM395,292.42a42,42,0,0,1-2.37,4.63,3.83,3.83,0,0,1-4.55,1.67,3.65,3.65,0,0,1-2.9-3.31,47.4,47.4,0,0,1-.26-5.2q-.11-49.54-.18-99.08c0-3.31-.2-6.62,2.71-9.13,1.79-1.55.95-3.05-.55-4.38q-7.23-6.37-14.41-12.81c-3-2.7-4.29-1.19-4.54,2s-.26,6.25-.26,9.38c0,50.24-.11,100.48.17,150.72,0,7.85-1.43,14.28-7.82,19.26-2.44,1.91-4.36,4.48-6.56,6.71-1.54,1.56-3.31,2.65-5.59,1.67s-2.63-3-2.67-5.22c0-1,0-2.08,0-3.13q0-88.12,0-176.27c0-.69,0-1.39,0-2.08-.15-1.67.54-3.81-1.4-4.69s-3.15,1-4.41,2.07c-4.17,3.66-8.19,7.5-12.45,11.06-2.63,2.18-3.54,4.34-.87,6.91,2.49,2.41,2.93,5.33,2.93,8.57q0,76.67,0,153.33c0,4.77-1.56,8.44-5.43,11.16-4.55,3.2-9,6.58-13.67,9.56-4.47,2.84-8.15,1.14-9.08-4.07a43,43,0,0,1-.32-7.28q0-74.57,0-149.15c0-1.82.95-4.34-1-5.29-2.27-1.1-3.62,1.43-5.12,2.71-2.36,2-4.49,4.32-6.79,6.43-3.66,3.34-8.66,6-4,12.33,1.14,1.55.69,4.38.69,6.63q.06,37.54,0,75.09c0,7.91-1.13,9.05-9,9.18q-7.05.1-14.08-.09c-5.75-.16-7.29-1.71-7.66-7.52-.12-1.9-.09-3.82-.09-5.73,0-19.47,0-38.94,0-58.4,0-1.79,1-4.34-1.13-5.2s-3.27,1.55-4.69,2.7c-3.91,3.17-7.72,6.48-11.56,9.74-1.52,1.3-3,2.65-1.08,4.73,2.38,2.54,2.27,5.7,2.27,8.83,0,17.91.16,35.81-.08,53.71-.06,5.09,1.44,7.28,6.75,7.18,10.25-.19,20.51,0,30.76.13,8.43.09,9.63,1.32,9.63,9.7,0,20-.12,40,.09,60,.05,5.52-1.88,8.45-7.26,10.3a219.47,219.47,0,0,1-48.69,10.95c-1.89.2-3.82.07-5.73.16-4.64.21-6.7-2.11-6.69-6.61s-.06-9-.06-13.56q0-172.87,0-345.76c0-2.5,1.3-6-1.12-7.31-2.68-1.47-4.34,2.11-6.26,3.54C204,47.32,199.81,51.32,195.41,55c-2.79,2.31-2.85,4.52-.25,6.94,4.14,3.84,5.28,8.73,5.27,14.19q0,163,0,325.94c0,1.39-.11,2.78-.16,4.17-.18,5.07-2.57,7.42-7.86,7.43-9.66,0-19-1.78-28.35-3.88a204.71,204.71,0,0,1-26.45-7.87c-3.64-1.36-5.27-3.42-5.24-7.3q.18-17.73,0-35.46c0-4.69,2.21-6.66,6.69-6.6,2.08,0,4.17,0,6.25,0,7.83,0,15.69.49,23.46-.13,12.82-1,10.71-1.2,10.74-11,.09-23.64,0-47.28-.11-70.93,0-1.82.6-3.8-1.06-6-4.79,3.75-9.06,8-13.72,11.75-3.53,2.86-5.26,4.65-1.49,8.43,1.34,1.33,1.12,3.58,1.12,5.51,0,14.25.06,28.51,0,42.76,0,7-1.61,8.5-8.67,8.58q-7.57.07-15.13,0c-6.63-.06-8-1.38-8-7.93-.05-12.34,0-24.68,0-37,0-1.65.82-3.91-1-4.81-2.06-1-3.44,1.11-4.8,2.3-4.19,3.65-8.2,7.51-12.39,11.16-2.39,2.08-3.12,4.13-.65,6.56,2.31,2.26,2.75,5.08,2.74,8.14,0,14.08,0,28.16,0,42.24,0,2.62.12,5.41-2.73,6.82s-5-.48-7.06-2C89,354,92,357.7,91.92,338.54c-.14-53.37,0-106.74,0-160.11v-5.84c-6.38,3-9.46,8.63-14.47,11.86-1.15.75-2,2-3.1,2.78-3.13,2-3.55,4-1.15,7.16,3.74,5,3.45,10.38-.63,15.88-7.45,10-15.1,19.94-22.72,29.86q-11.93,15.48-24,30.87a27,27,0,0,1-3.38,3.92c-4.25,3.7-7.53,2.75-9.35-2.56a190.55,190.55,0,0,1-9-42.73C-.82,181.12,10.68,136.53,37,95.72a201.37,201.37,0,0,1,51.49-54c4-2.89,7.6-3.47,12.08-1.55,13.7,5.88,27,12.23,35.19,25.63,8.52,13.9,10.66,29.16,9.5,45.08-.19,2.49-1.86,4.45-3.25,6.46-8.29,12-19.12,20.49-33.2,24.71-1.5.45-4,.36-3.84,2.66.13,1.68,2.32,1.89,3.76,2.34a47.41,47.41,0,0,0,28.72.47c12.31-3.77,18.61-11.4,17.68-24.12-1.38-18.61.79-37.12.27-55.68-.47-17,.06-34.07-.2-51.11-.07-5.08,1.58-7.25,6.66-8.54,26.79-6.79,53.75-5.73,80.79-2.48,4.27.52,8.42,2.08,12.58,3.29,3.57,1,4.72,3.91,4.82,7.25.13,4.35.21,8.7.05,13-.14,3.56,1.33,5.35,4.8,6.21,30.1,7.49,54.92,23.71,75.91,46.21,3.32,3.56,6.95,6.81,10.4,10.24s2.76,6.8-2,8a32.84,32.84,0,0,1-7.75.68c-24.34,0-48.68,0-73,0-7,0-9.55,3.81-7.27,10.41a3.54,3.54,0,0,0,3.43,2.67c1.73.08,3.47.11,5.21.11,37.55,0,75.1.06,112.65-.1,5,0,7.89,1.63,10.09,6.22a201.26,201.26,0,0,1,20.08,84.46C413.18,235.06,407.57,264.39,395,292.42Z"/><path d="M376.2,120.45c-37.53.71-75.08,1.4-112.62.11-7.4-.25-9.54-2.33-9.77-9.76-.05-1.56,0-3.13,0-4.69,0-11.41,1.62-13,12.93-13q34.42,0,68.84,0c1.33,0,3,.51,3.83-.91s-.69-2.17-1.48-3c-20.36-21.66-43.57-38.81-73-46.07a47.07,47.07,0,0,1-6.49-1.95c-3.7-1.49-5.87-3.91-5.38-8.4a97.16,97.16,0,0,0,0-11.45c0-4-2-6.23-6.07-7.11a188.69,188.69,0,0,0-77.59-.3c-5.75,1.16-7.56,3.66-7.52,9.44.24,34.73-.13,69.47.28,104.2.12,9.89-4.11,16.53-11.52,22a35.08,35.08,0,0,1-14.83,6c-11.74,2.12-23.2,1.31-34.28-3.23-3.62-1.49-5.91-4.15-5.69-8.45.21-4.12,2.7-6.16,6.23-7.43,2.62-.94,5.17-2.08,7.82-2.9,11.75-3.65,20-11.59,26.54-21.59a10.85,10.85,0,0,0,2.2-6.28C138,76.13,125.92,56.77,99.12,47.68c-2.44-.82-4.6-.94-6.86.75a251.89,251.89,0,0,0-26,22.47C53.38,83.58,43.74,98.7,35,114.33c-15.07,26.83-22.87,55.87-24.86,86.42-1.32,20.3,2,40.18,7.31,59.75.43,1.6.3,3.92,2.22,4.41s2.83-1.71,3.83-3C37.58,243.62,51.63,225.28,65.79,207c2.57-3.32,3.12-6.25.31-9.79S62,189,65.62,185.37A262.54,262.54,0,0,1,87,166.27c5.23-4.15,12-.56,12.48,6.07.16,2.07.07,4.17.07,6.25q0,83.44-.12,166.89c0,4.62,1.21,8.1,5,10.65,1.13.75,2.11,2.21,3.6,1.7,2-.67,1.35-2.62,1.35-4.08.06-9.56-.06-19.13.09-28.68a15.88,15.88,0,0,0-3.31-10.63c-3.41-4.38-3.27-8.78.34-12.21,6-5.74,12.32-11.24,18.58-16.74,2.83-2.47,6.17-3.26,9.71-1.65,3.69,1.67,4.5,4.88,4.47,8.64-.1,10.61,0,21.21,0,31.81,0,11.24,0,11.09,11.3,10.82,4.42-.1,6.26-1.72,6.2-6.2-.15-12-.06-24-.05-36a10.27,10.27,0,0,0-2.17-6.75c-3.53-4.48-3.18-8.51,1.13-12.36,5.84-5.2,11.91-10.15,17.88-15.2a8.06,8.06,0,0,1,8.8-1.27c3,1.27,4.35,3.88,4.4,7.11q.09,6,.1,12c0,24,0,48,0,72,0,7.42-1.44,8.74-8.44,9.92-11.07,1.88-22.2.65-33.3.83-4.2.06-6,1.52-5.88,5.83q.3,12,0,24c-.1,3.92,1.43,6.06,5.1,7.34a194.74,194.74,0,0,0,41,9.64c7.71.92,7.75.81,7.75-7.12q0-159.58.07-319.17c0-5.28-1.13-9.76-4.51-14-4.92-6.14-4.15-11.1,1.87-16.26,5.27-4.53,10.64-8.95,15.77-13.65,3.78-3.46,8-5.31,12.8-3.26,4.6,2,3.67,6.61,3.67,10.55q0,177,0,354.11c0,1.56.07,3.13,0,4.69-.17,4,1.58,5,5.48,4.55a225.41,225.41,0,0,0,43.58-10.1c4.1-1.37,5.8-3.45,5.74-7.88-.2-17.38-.24-34.77,0-52.15.08-5.38-2.26-7.11-7.11-7.1-10.08,0-20.16,0-30.24-.15-7.94-.09-9.72-2-9.72-10q0-27.12,0-54.24c0-2.8-.15-5.4-2.09-7.82-3.92-4.91-3.79-8.56.73-12.75,5.6-5.19,11.46-10.11,17.39-14.94,3.07-2.5,6.78-2.6,10.35-1s3.41,4.85,3.41,8.05q0,29.46,0,58.93c0,10.57,0,10.41,10.67,10.42,4.57,0,6.59-1.37,6.56-6.26-.18-22.95-.1-45.9-.14-68.84a15.82,15.82,0,0,0-2.28-8.94c-3.11-4.82-2.62-8.59,1.52-12.52,5-4.78,10.25-9.39,15.36-14.1,3.37-3.09,7.13-5.4,11.75-3.29s4.47,6.46,4.47,10.77q-.07,73.53,0,147.07c0,1.74,0,3.48.12,5.21.11,1.56.93,2,2.5,1.58,5.62-1.65,11.48-9.25,11.48-15.18q0-72.75,0-145.5a12.75,12.75,0,0,0-2.55-8.22c-4.49-5.94-3.94-11.09,1.5-16.11,5-4.6,10.06-9.09,15.17-13.54a12.84,12.84,0,0,1,3.93-2.47c6.76-2.43,11.57,1.66,11.58,9.89q0,84.48,0,169c0,1.74,0,3.48.06,5.21,0,1-.05,2.24,1.26,2.54,1,.23,1.42-.78,2.05-1.36,4.34-4,5.87-8.9,5.85-14.91-.17-53.37-.08-106.74-.09-160.11,0-3.78.12-7.52,4.17-9.32s7.81-.85,11.08,2.07c5.84,5.2,11.76,10.32,17.45,15.67a8.12,8.12,0,0,1,.65,11.69c-2.31,2.61-2.81,5.39-2.8,8.61q.06,36.77,0,73.54v8.78l1.17.28a8.81,8.81,0,0,0,1-1.7c9.1-26.93,14-54.36,11.05-83A216.41,216.41,0,0,0,388,128C385.58,122.45,382.42,120.33,376.2,120.45ZM69.9,117.24C59.05,117.29,53.07,111.18,53,100c0-10.32,6.41-16.54,17.07-16.48,10.11.06,15.94,6.23,15.94,16.89C86,110.74,79.83,117.21,69.9,117.24ZM88.67,99.12c0-10.76,5.91-16.55,16.85-16.53,10.18,0,17,6.9,16.92,17a16.44,16.44,0,0,1-16.88,16.65C94.55,116.21,88.67,110.26,88.67,99.12Zm39.55,121C118,220,110.84,213.35,110.9,204c.06-10.55,6.76-17.23,17.26-17.21,11.09,0,17.15,6.08,17.09,17.07C145.19,213.42,138.05,220.28,128.22,220.15Z"/></g></g></svg>