<svg xmlns="http://www.w3.org/2000/svg" xmlns:xlink="http://www.w3.org/1999/xlink" viewBox="0 0 196.76 73.88"><defs><style>.cls-1{fill:url(#linear-gradient);}.cls-2{fill:url(#linear-gradient-2);}.cls-3{fill:url(#linear-gradient-3);}.cls-4{fill:url(#linear-gradient-4);}</style><linearGradient id="linear-gradient" y1="41.96" x2="196.76" y2="41.96" gradientUnits="userSpaceOnUse"><stop offset="0" stop-color="#AA3609"/><stop offset="1" stop-color="#ff6745"/></linearGradient><linearGradient id="linear-gradient-2" x1="94.58" y1="6.95" x2="98.67" y2="6.95" xlink:href="#linear-gradient"/><linearGradient id="linear-gradient-3" x1="83.97" y1="12.28" x2="90.85" y2="12.28" xlink:href="#linear-gradient"/><linearGradient id="linear-gradient-4" x1="100.43" y1="13.46" x2="106.9" y2="13.46" xlink:href="#linear-gradient"/></defs><g id="Layer_2" data-name="Layer 2"><g id="object"><path class="cls-1" d="M57.67,73.88l2.2-.39c.73-.14,1.64-.28,2.71-.5s2.32-.45,3.73-.76l2.24-.51c.78-.17,1.6-.39,2.46-.62s1.77-.44,2.7-.74l1.42-.42.74-.23.74-.25A81.09,81.09,0,0,0,89.9,63.62c4.82-2.59,10-5.76,15.83-9.06.71-.43,1.47-.81,2.22-1.22l1.14-.61c.38-.21.78-.37,1.17-.57l2.4-1.12,2.49-1c.83-.36,1.71-.65,2.57-1s1.74-.66,2.65-.93l2.72-.88,2.8-.78c.93-.29,1.9-.49,2.87-.73l1.45-.34c.49-.12,1-.21,1.48-.31,1-.19,2-.41,3-.58l3.07-.49a97.64,97.64,0,0,1,12.89-1,70.57,70.57,0,0,1,13.67,1.18,25.61,25.61,0,0,1,3.49.83,19.63,19.63,0,0,1,3.43,1.37,10.93,10.93,0,0,1,3.08,2.3,6.69,6.69,0,0,1,1.12,1.7,5.65,5.65,0,0,1,.49,2,6.34,6.34,0,0,1-.28,2.08,8.62,8.62,0,0,1-.87,1.84,13,13,0,0,1-2.61,3A24.51,24.51,0,0,1,169,61.6l-.84.49c-.29.17-.57.31-.86.46l-1.72.91a51.17,51.17,0,0,1-7.36,2.9A47.43,47.43,0,0,1,150.33,68a59,59,0,0,1-8.21.43c-2.76,0-5.54-.24-8.32-.52-.7-.06-1.4-.15-2.09-.22s-1.4-.17-2.1-.27l-2.11-.28L126.44,67l-1-.18-2.11-.37-1.06-.19c-.36-.06-.71-.14-1.06-.22L119,65.57c-.7-.15-1.41-.29-2.12-.48A148.25,148.25,0,0,1,83.38,52.32c-5.49-2.83-10.91-6-16.28-9.35l-2-1.27c-.67-.44-1.34-.88-2-1.33-1.33-.9-2.64-1.82-3.95-2.75-2.61-1.86-5.22-3.74-7.87-5.57s-5.35-3.6-8.14-5.24a67.07,67.07,0,0,0-8.67-4.38L33.33,22l-1.14-.41-.57-.2L31,21.19l-1.15-.36-1.17-.3c-.2-.05-.39-.11-.59-.15l-.59-.12c-.39-.08-.78-.17-1.18-.24l-1.19-.16a23.9,23.9,0,0,0-4.78-.16l-.59,0c-.2,0-.4.05-.6.07L18,20l-1.16.26-.58.13-.57.18c-.38.13-.77.22-1.14.37l-1.11.45a22.71,22.71,0,0,0-2.16,1.06,19.81,19.81,0,0,0-3.83,2.84A16.61,16.61,0,0,0,5.88,27a15,15,0,0,0-1.31,2,16.68,16.68,0,0,0-1,2.15A14.7,14.7,0,0,0,3,33.44a15.6,15.6,0,0,0,1.36,9.33,22.36,22.36,0,0,0,1.17,2.15c.23.34.45.69.69,1L7,47a32.53,32.53,0,0,0,3.37,3.77,34,34,0,0,0,8.31,5.85A41.42,41.42,0,0,0,28.37,60a53.34,53.34,0,0,0,10.42,1.21l1.33,0,1.32,0,1.33,0,1.33-.09L45.43,61c.44,0,.89,0,1.33-.12l2.65-.31a81.36,81.36,0,0,0,10.52-2.23,98,98,0,0,0,10.23-3.63l2.51-1.09,2.49-1.16c.83-.37,1.64-.8,2.47-1.21l1.23-.61L80.08,50c3.26-1.7,6.47-3.55,9.67-5.45,6.39-3.81,12.62-7.86,18.93-11.74,3.16-1.93,6.33-3.83,9.55-5.65s6.48-3.52,9.8-5.12,6.72-3,10.16-4.27l2.59-.91c.87-.29,1.75-.54,2.62-.82.44-.13.87-.27,1.32-.39l1.35-.36c.45-.11.91-.2,1.36-.3s.91-.19,1.37-.26c.91-.18,1.82-.29,2.73-.41s1.83-.2,2.75-.25S156.11,14,157,14s1.83,0,2.74,0,1.81.09,2.72.14,1.81.14,2.71.26,1.79.23,2.68.36,1.79.29,2.67.49c1.77.35,3.51.79,5.24,1.3a51,51,0,0,1,5.08,1.78,41.75,41.75,0,0,1,4.87,2.32,34.46,34.46,0,0,1,4.52,3,23,23,0,0,1,3.89,3.88c.27.37.54.76.81,1.14s.5.82.72,1.25l.3.67.15.34a3.58,3.58,0,0,1,.11.35l.23.71c.06.24.1.49.15.73a10.74,10.74,0,0,1,.15,1.5c0,.25,0,.5,0,.75l0,.37a2.2,2.2,0,0,1-.05.37l-.13.73c-.06.24-.13.48-.19.71l-.1.36-.13.34-.27.67A16.8,16.8,0,0,1,192.65,43a28.56,28.56,0,0,1-4.07,3.43,40.65,40.65,0,0,1-4.45,2.71,45.09,45.09,0,0,1-4.69,2.15c-.8.32-1.62.6-2.45.87s-1.68.47-2.51.65-1.67.34-2.51.5l-1.26.19-.63.09-.63.07c-1.68.21-3.36.28-5,.34a76,76,0,0,1-9.93-.48c-3.26-.36-6.48-.89-9.64-1.53s-6.28-1.36-9.35-2.15c-6.15-1.56-12.13-3.34-18-4.95-1.47-.4-3-.84-4.43-1.26-.74-.21-1.47-.45-2.2-.68s-1.46-.45-2.18-.69l-2.16-.75-1.08-.37-1.06-.4L102.23,40c-.7-.27-1.39-.56-2.09-.85a157,157,0,0,1-15.9-7.72c-5.08-2.77-10-5.64-14.8-8.37l-3.61-2L64,20c-.29-.16-.59-.31-.89-.46l-.89-.44a54.05,54.05,0,0,0-7.46-2.77,51.71,51.71,0,0,0-7.63-1.64,38.13,38.13,0,0,0-3.81-.32,27.32,27.32,0,0,0-3.74.17,15.27,15.27,0,0,0-3.53.83,9.57,9.57,0,0,0-3,1.74c-.21.2-.42.38-.62.61l-.3.33a2.22,2.22,0,0,0-.28.33c-.18.23-.37.46-.53.7s-.32.48-.47.73A8.22,8.22,0,0,0,29.8,23a8.43,8.43,0,0,0,.32,3.31,11.61,11.61,0,0,0,1.47,3.05,19.62,19.62,0,0,0,4.79,4.83,27.1,27.1,0,0,0,5.9,3.22,25.1,25.1,0,0,0,3.14,1l.8.22c.26.07.53.12.8.18.53.13,1.06.25,1.6.34a45.92,45.92,0,0,0,12.65.62A61.41,61.41,0,0,0,73,37.53a94.89,94.89,0,0,0,10.56-3.77C86.9,32.36,90,30.88,93,29.4c6-3,11.31-5.9,16.17-8.44s9.23-4.7,13.13-6.35a66.64,66.64,0,0,1,10.1-3.45,37.84,37.84,0,0,1,6.48-1l1,0h.7l-.7,0-1,.07a38.41,38.41,0,0,0-6.45,1.13,65.86,65.86,0,0,0-10,3.58c-3.87,1.69-8.2,3.9-13,6.51S99.28,27,93.33,30c-3,1.52-6.11,3.05-9.44,4.49a95,95,0,0,1-10.61,3.93,62.36,62.36,0,0,1-11.91,2.42,47.38,47.38,0,0,1-13-.49c-.55-.09-1.1-.21-1.65-.34l-.83-.18-.82-.21a28.53,28.53,0,0,1-3.29-1.05,29.08,29.08,0,0,1-6.21-3.32,20.85,20.85,0,0,1-5.18-5.13,13,13,0,0,1-1.68-3.42,9.81,9.81,0,0,1-.41-3.9A9.7,9.7,0,0,1,29.57,19c.16-.29.35-.57.52-.85s.4-.53.6-.79A2.92,2.92,0,0,1,31,17l.33-.37a6.8,6.8,0,0,1,.71-.71,10.82,10.82,0,0,1,3.48-2.07,16.92,16.92,0,0,1,3.88-.95,26.62,26.62,0,0,1,4-.22c1.33,0,2.65.14,4,.3a53,53,0,0,1,7.9,1.62A55.3,55.3,0,0,1,63,17.43c.32.14.64.29.95.45s.63.32.94.48c.62.33,1.21.66,1.82,1l3.64,2c4.86,2.7,9.77,5.53,14.83,8.24A155.36,155.36,0,0,0,101,37.12c.68.28,1.36.56,2.06.83l2.09.77,1,.39,1.06.36,2.13.72,2.15.67c.72.21,1.44.45,2.17.65,1.46.4,2.9.82,4.4,1.21,6,1.59,11.92,3.32,18,4.84,3,.76,6.13,1.46,9.24,2.07s6.26,1.1,9.44,1.44a71.36,71.36,0,0,0,9.59.41c1.6-.06,3.21-.14,4.81-.35l.6-.06.59-.09,1.19-.19c.79-.15,1.59-.28,2.37-.48s1.54-.37,2.3-.61,1.52-.51,2.27-.82a40.86,40.86,0,0,0,4.41-2A38.2,38.2,0,0,0,187,44.28a25.65,25.65,0,0,0,3.68-3.11,14.1,14.1,0,0,0,2.65-3.77,7.17,7.17,0,0,0,.55-4.21,4.94,4.94,0,0,0-.1-.53l-.17-.51c0-.09-.05-.18-.08-.26l-.12-.25-.22-.51c-.18-.33-.38-.65-.57-1l-.69-1a20.14,20.14,0,0,0-3.44-3.4,30.64,30.64,0,0,0-4.15-2.73,39,39,0,0,0-4.57-2.17A46.64,46.64,0,0,0,175,19.22c-1.64-.48-3.31-.9-5-1.23-.84-.18-1.7-.31-2.55-.46s-1.71-.25-2.57-.34-1.72-.16-2.58-.24-1.73-.11-2.6-.12-1.74,0-2.61,0-1.73,0-2.6.12-1.73.15-2.59.23-1.73.23-2.58.4c-.42.07-.85.15-1.27.25s-.85.17-1.27.28l-1.26.33-1.26.39c-.85.27-1.7.51-2.54.8l-2.52.88q-5,1.86-9.89,4.18c-3.24,1.57-6.45,3.26-9.62,5s-6.31,3.68-9.44,5.61c-6.27,3.85-12.51,7.91-19,11.76C88,49,84.78,50.88,81.45,52.62c-.41.22-.82.44-1.24.65L79,53.9c-.84.42-1.67.85-2.52,1.24l-2.55,1.19L71.3,57.44a105.12,105.12,0,0,1-10.56,3.74,85.62,85.62,0,0,1-10.93,2.3l-2.76.32c-.46.07-.92.08-1.39.12L44.28,64l-1.39.09-1.38,0-1.39,0-1.39,0a55.56,55.56,0,0,1-11-1.31,43.76,43.76,0,0,1-10.41-3.69,37.11,37.11,0,0,1-9-6.36,35.43,35.43,0,0,1-3.64-4.11l-.8-1.11c-.26-.37-.52-.77-.77-1.15A23.27,23.27,0,0,1,1.82,44,18.28,18.28,0,0,1,.27,33,17.87,17.87,0,0,1,1,30.23a18.47,18.47,0,0,1,1.17-2.56,18.26,18.26,0,0,1,1.55-2.31,19.11,19.11,0,0,1,1.86-2.05A22.07,22.07,0,0,1,10,20.08a22.74,22.74,0,0,1,2.43-1.19l1.25-.5c.42-.16.86-.27,1.29-.41l.64-.2c.22-.06.44-.1.66-.15l1.31-.29,1.33-.18c.23,0,.45-.07.67-.08l.67,0a27.44,27.44,0,0,1,5.29.19l1.3.2c.43.07.85.17,1.28.25l.64.14.62.16,1.26.33,1.23.39.61.19.61.22,1.2.44,1.19.48a69.29,69.29,0,0,1,9,4.59c2.86,1.69,5.6,3.52,8.27,5.38s5.28,3.77,7.87,5.63c1.3.93,2.59,1.85,3.89,2.74.65.45,1.3.88,2,1.31l2,1.27c5.3,3.38,10.64,6.52,16.05,9.35a147.43,147.43,0,0,0,33,12.83c.69.19,1.39.33,2.08.48l2.08.46c.35.08.69.17,1,.23l1,.19,2.08.38,1,.19,1,.15,2.07.3c.69.1,1.37.2,2.07.27L134,66c2.75.3,5.47.51,8.16.58a60.06,60.06,0,0,0,8-.35,46.11,46.11,0,0,0,7.64-1.51A50.48,50.48,0,0,0,164.89,62l1.67-.87c.28-.14.56-.28.83-.43l.81-.47a22.7,22.7,0,0,0,3-2.11,11.94,11.94,0,0,0,2.34-2.6,7.11,7.11,0,0,0,.72-1.5,5.23,5.23,0,0,0,.24-1.56,4.12,4.12,0,0,0-.36-1.5,5.36,5.36,0,0,0-.86-1.34,9.87,9.87,0,0,0-2.66-2,19,19,0,0,0-3.17-1.3,24.07,24.07,0,0,0-3.35-.82,68.71,68.71,0,0,0-13.41-1.29,96.19,96.19,0,0,0-12.75.82l-3,.45c-1,.16-2,.36-3,.54-.49.1-1,.18-1.47.29l-1.45.33c-.95.22-1.92.41-2.85.68l-2.78.75-2.7.83c-.9.27-1.77.59-2.63.9s-1.73.59-2.56.94l-2.48,1c-.81.36-1.6.73-2.38,1.09-.39.18-.79.34-1.17.55l-1.13.59c-.75.39-1.5.76-2.23,1.18-5.83,3.23-11.08,6.33-16,8.87a80.25,80.25,0,0,1-13.42,5.69l-.75.24-.73.22-1.44.41c-.93.28-1.84.49-2.71.7s-1.69.43-2.48.59l-2.24.48c-1.42.28-2.67.5-3.75.71s-2,.33-2.71.45Z"/><path class="cls-2" d="M95.68.06c.49-.19,1.1.08,1.67.74a5.94,5.94,0,0,1,1.25,3,10,10,0,0,1-.08,2.89,13,13,0,0,1-1.13,3.61A12.41,12.41,0,0,1,95.66,13c-.53.63-.94,1-1,.91s.45-2.06.62-4.22a15.36,15.36,0,0,0,0-3.12c0-.24-.06-.47-.09-.68s-.06-.42-.1-.61-.06-.37-.08-.52-.06-.31-.08-.43a10,10,0,0,1,0-2.71C94.91.84,95.19.24,95.68.06Z"/><path class="cls-3" d="M85.52,8a1.82,1.82,0,0,1,.73.26,2.77,2.77,0,0,1,.62.52,4.29,4.29,0,0,1,.92,1.68c.11.35.21.94.38,1.61a10.84,10.84,0,0,0,.69,2.06A2.9,2.9,0,0,0,90,15.5c.42.24.85.23.89.36s0,.14-.19.27a2.48,2.48,0,0,1-.31.19,2.17,2.17,0,0,1-.47.15,2.67,2.67,0,0,1-1.29-.1,4.82,4.82,0,0,1-1.36-.68,9,9,0,0,1-3.06-4.08,3.87,3.87,0,0,1,0-2.55,1.86,1.86,0,0,1,.57-.79A1,1,0,0,1,85.52,8Z"/><path class="cls-4" d="M105.41,10.17a1.44,1.44,0,0,1,1.27.9,2.82,2.82,0,0,1,0,2.26,5,5,0,0,1-1.16,1.59,6.87,6.87,0,0,1-2.1,1.37,5.86,5.86,0,0,1-2,.46,3,3,0,0,1-.65-.05c-.15,0-.25-.08-.26-.13-.07-.21.94-1,1.6-2.06A7.61,7.61,0,0,0,102.8,13c.17-.48.27-.87.35-1.1a3,3,0,0,1,.87-1.13A2.24,2.24,0,0,1,105.41,10.17Z"/></g></g></svg>