<svg xmlns="http://www.w3.org/2000/svg" xmlns:xlink="http://www.w3.org/1999/xlink" viewBox="0 0 444.75 96.15"><defs><style>.cls-1{fill:url(#linear-gradient);}.cls-2{fill:url(#linear-gradient-2);}.cls-3{fill:url(#linear-gradient-3);}.cls-4{fill:url(#linear-gradient-4);}.cls-5{fill:url(#linear-gradient-5);}.cls-6{fill:url(#linear-gradient-6);}.cls-7{fill:url(#linear-gradient-7);}.cls-8{fill:url(#linear-gradient-8);}.cls-9{fill:url(#linear-gradient-9);}.cls-10{fill:url(#linear-gradient-10);}.cls-11{fill:url(#linear-gradient-11);}.cls-12{fill:url(#linear-gradient-12);}.cls-13{fill:url(#linear-gradient-13);}</style><linearGradient id="linear-gradient" x1="216" y1="85.22" x2="226.16" y2="85.22" gradientTransform="matrix(1, 0, 0, -1, 0, 96.15)" gradientUnits="userSpaceOnUse"><stop offset="0" stop-color="#fef275"/><stop offset="1" stop-color="#bda32b"/></linearGradient><linearGradient id="linear-gradient-2" x1="227.7" y1="24.08" x2="247.03" y2="24.08" xlink:href="#linear-gradient"/><linearGradient id="linear-gradient-3" x1="213.54" y1="17.5" x2="229" y2="17.5" xlink:href="#linear-gradient"/><linearGradient id="linear-gradient-4" x1="195.12" y1="24.08" x2="214.45" y2="24.08" xlink:href="#linear-gradient"/><linearGradient id="linear-gradient-5" x1="217.5" y1="40.75" x2="224.9" y2="40.75" xlink:href="#linear-gradient"/><linearGradient id="linear-gradient-6" x1="91.2" y1="35.89" x2="213" y2="35.89" xlink:href="#linear-gradient"/><linearGradient id="linear-gradient-7" x1="145.06" y1="19.61" x2="180.34" y2="19.61" xlink:href="#linear-gradient"/><linearGradient id="linear-gradient-8" x1="150.45" y1="54.24" x2="221.09" y2="54.24" xlink:href="#linear-gradient"/><linearGradient id="linear-gradient-9" x1="229.18" y1="35.89" x2="350.97" y2="35.89" xlink:href="#linear-gradient"/><linearGradient id="linear-gradient-10" x1="261.83" y1="19.61" x2="297.11" y2="19.61" xlink:href="#linear-gradient"/><linearGradient id="linear-gradient-11" x1="221.08" y1="54.24" x2="291.72" y2="54.24" xlink:href="#linear-gradient"/><linearGradient id="linear-gradient-12" x1="364.26" y1="19.61" x2="444.75" y2="19.61" xlink:href="#linear-gradient"/><linearGradient id="linear-gradient-13" x1="0" y1="19.61" x2="80.49" y2="19.61" xlink:href="#linear-gradient"/></defs><g id="Layer_2" data-name="Layer 2"><g id="object"><path class="cls-1" d="M221.08,21.85,216,11.08l0,0C218.1,8.25,220.89.68,220.89.68l.19-.68.19.68s2.78,7.57,4.86,10.36l0,0Z"/><path class="cls-2" d="M245.9,73.68a1.88,1.88,0,0,1,1,1.3,3.89,3.89,0,0,1-.34,2.58,6.58,6.58,0,0,1-2.74,2.89,8.4,8.4,0,0,1-4.75,1.06,9.76,9.76,0,0,1-3-.73,12.44,12.44,0,0,1-3.35-2.06A14,14,0,0,1,230,75.51a15.43,15.43,0,0,1-1.67-3.73,17.16,17.16,0,0,1-.61-3.6c0-.56,0-1.09,0-1.58s.06-.94.12-1.36.14-.78.2-1.11a6.29,6.29,0,0,1,.25-.82c.16-.46.3-.7.43-.7s.26.24.43.67l.68,1.73c.14.36.32.73.48,1.13l.6,1.22a18.33,18.33,0,0,0,1.58,2.43,13.25,13.25,0,0,0,2,2,9.55,9.55,0,0,0,2.13,1.28,7.29,7.29,0,0,0,1.82.53,2.47,2.47,0,0,0,.36,0,1.23,1.23,0,0,0,.32,0l.28,0a1.77,1.77,0,0,1,.23,0c.56,0,1,.08,1.47.09a8.41,8.41,0,0,0,1.49,0C243.68,73.67,244.9,73.25,245.9,73.68Z"/><path class="cls-3" d="M229,82.72c-3-6.86-3.84-16.49-3.93-17.76,0-.08,0-.14-.11-.14l-3-3.34a1,1,0,0,0-1.47,0l-2.95,3.34a.13.13,0,0,0-.11.14c-.1,1.27-.78,10.16-3.94,17.76,0,.06,6.08,11,7.46,13.25a.31.31,0,0,0,.55,0C222.92,93.69,229,82.78,229,82.72Z"/><path class="cls-4" d="M196.25,73.68a1.9,1.9,0,0,0-1,1.3,4,4,0,0,0,.35,2.58,6.52,6.52,0,0,0,2.74,2.89,8.36,8.36,0,0,0,4.75,1.06,9.76,9.76,0,0,0,3-.73,12.39,12.39,0,0,0,3.34-2.06,14,14,0,0,0,2.73-3.21,15.39,15.39,0,0,0,1.66-3.73,16.54,16.54,0,0,0,.61-3.6c0-.56,0-1.09,0-1.58s-.06-.94-.12-1.36-.13-.78-.2-1.11a6.42,6.42,0,0,0-.24-.82c-.16-.46-.31-.7-.43-.7s-.26.24-.44.67-.41,1.06-.68,1.73c-.14.36-.31.73-.48,1.13s-.38.8-.6,1.22a17.3,17.3,0,0,1-1.57,2.43,13.72,13.72,0,0,1-2,2,9.6,9.6,0,0,1-2.14,1.28,7.29,7.29,0,0,1-1.82.53,2.2,2.2,0,0,1-.36,0,1.16,1.16,0,0,1-.31,0l-.28,0a1.76,1.76,0,0,0-.23,0c-.56,0-1,.08-1.47.09a8.4,8.4,0,0,1-1.49,0C198.48,73.67,197.25,73.25,196.25,73.68Z"/><path class="cls-5" d="M221.27,60.26l-3.77-3.58h0c.68-.91,3.77-6.16,3.77-6.16h0s2.95,5.25,3.63,6.16h0Z"/><path class="cls-6" d="M205.4,64.47l.77-.21,2.82-.8,2.14-.59,1.56-.38v0l-1.5.57-1.21.48-.22.17-.26.2.31-.07a10.45,10.45,0,0,0,2.93-1.22.21.21,0,0,1,0,.07,2.09,2.09,0,0,0,.22.45,11,11,0,0,1-3,1.35,19,19,0,0,1-1.94.44,30.3,30.3,0,0,1-3.8,2.06l-.75.34-.79.33c-.53.23-1.11.43-1.7.65-1.18.4-2.47.81-3.84,1.13a32.37,32.37,0,0,1-4.39.75c-.77.07-1.57.11-2.37.11l-1.21,0c-.4,0-.81,0-1.22-.08a49.08,49.08,0,0,1-11.79-2.59,80.24,80.24,0,0,1-7.82-3.18c-.94-.33-2.11-.71-3.43-1.24s-2.8-1.14-4.43-1.82-3.31-1.58-5.13-2.47-3.66-2-5.57-3.07q-2.09-1.24-4.05-2.45a42.9,42.9,0,0,1-3.63-2.59L139,48.35c-1-.77-1.9-1.46-2.76-2.07a22.91,22.91,0,0,0-4.31-2.44c-.27-.11-.51-.22-.73-.29l-.54-.18-.45-.14.46.08.57.1.77.2a20.81,20.81,0,0,1,4.63,2c.92.54,1.92,1.16,3,1.86s2.13,1.47,3.28,2.27,2.34,1.63,3.62,2.38,2.68,1.56,4.06,2.38L156,57.66c1.76,1,3.43,1.86,5,2.71s3,1.5,4.24,2.15,2.37,1.15,3.28,1.59c1.88.63,4.64,1.53,8,2.44a66.15,66.15,0,0,0,11.59,2.13c.39,0,.78.07,1.17.08l1.15,0c.76,0,1.51,0,2.24,0a39.38,39.38,0,0,0,4.25-.55c1.35-.24,2.62-.56,3.8-.87.59-.17,1.16-.32,1.7-.5l.8-.25.76-.27c1.13-.4,2.12-.8,3-1.18-.4.05-.8.09-1.21.12a30.1,30.1,0,0,1-6.82,1.68c-.36.07-.73.07-1.1.11l-1.14.08c-.76,0-1.54,0-2.34,0a37.79,37.79,0,0,1-4.89-.44,61.32,61.32,0,0,1-12-3.31c-1.69-.63-3.23-1.26-4.58-1.81L171,60.78l-1.57-.72-1.63-.54-1.91-.73c-1.38-.51-2.89-1.19-4.55-1.93-3.3-1.52-7.07-3.48-11-5.65-2.92-1.6-5.69-3.12-8.24-4.38A59,59,0,0,0,135,44.07c-1-.31-2-.64-2.8-.82a9.85,9.85,0,0,1-2.14-.67,3.73,3.73,0,0,1-.49-.29l-.7-.06-1.62-.1-.8-.05-.8,0-1.6,0a49.18,49.18,0,0,0-6.23.29l-.76.1c-.25,0-.51.06-.75.11l-1.49.28-1.45.35c-.24,0-.48.13-.71.2l-.71.22-.7.22-.69.26c-.46.17-.92.33-1.36.54s-.89.38-1.32.59l-1.29.66c-.21.1-.42.22-.63.34l-.62.36-.62.35-.6.38-1.19.75-.56.39-.54.4-.52.41c-.18.14-.34.29-.51.43-.34.28-.64.59-1,.89a20.43,20.43,0,0,0-1.71,1.92,19.88,19.88,0,0,0-1.42,2.06,18.18,18.18,0,0,0-1.1,2.15,19.16,19.16,0,0,0-.8,2.18c-.09.37-.2.73-.27,1.09s-.16.73-.2,1.09a15.37,15.37,0,0,0-.06,4.11,13.31,13.31,0,0,0,1,3.55,14.37,14.37,0,0,0,1.58,2.83,16.59,16.59,0,0,0,2,2.28l.56.51a2.09,2.09,0,0,0,.28.24l.28.23c.18.15.39.28.58.42l.3.21.31.19a14.74,14.74,0,0,0,2.62,1.27,19.31,19.31,0,0,0,2.79.8,23.2,23.2,0,0,0,8.46.1c.45-.07.89-.18,1.34-.28l.65-.17c.22,0,.44-.11.65-.18a16.2,16.2,0,0,0,8.28-5.41c.11-.16.22-.32.34-.47l.16-.24.15-.24.29-.49.26-.5.12-.25c0-.08.07-.17.11-.26l.21-.51c0-.17.11-.34.16-.52l.08-.25a2.68,2.68,0,0,0,.07-.27l.12-.52c0-.17.05-.35.08-.52l0-.26,0-.26,0-.52v-.77l0-.25c0-.17,0-.34-.05-.51s0-.33-.07-.49a2,2,0,0,1,0-.24l-.06-.24c0-.16-.08-.32-.11-.48l-.15-.46-.07-.23-.09-.22-.17-.44c-.06-.14-.14-.28-.2-.42s-.29-.54-.44-.8a9.25,9.25,0,0,0-2.23-2.51,9,9,0,0,0-2.56-1.4,8.76,8.76,0,0,0-2.45-.46l-.28,0h-.79l-.29,0a4,4,0,0,1,2.18,4,3.94,3.94,0,0,1-4.3,3.58,4,4,0,0,1,.15-8l.27-.12.84-.31c.31-.09.65-.17,1-.25l.57-.09.31,0,.31,0a9,9,0,0,1,2.84.25,9.79,9.79,0,0,1,3.15,1.4A10.78,10.78,0,0,1,128.26,59a9.7,9.7,0,0,1,.58.93l.27.49.24.52c0,.09.08.17.11.26l.11.27c.06.19.13.37.2.55l.16.58.09.29.06.29.12.6c0,.21.06.41.08.62l0,.31c0,.1,0,.21,0,.31l0,.64c0,.21,0,.43,0,.64v.33l0,.32c0,.22-.05.44-.08.66l-.12.65c0,.11,0,.22-.07.33l-.09.32c-.06.22-.11.44-.18.66s-.15.42-.23.64l-.12.32-.15.31c-.09.21-.19.42-.29.63l-.34.61-.17.3-.19.3-.39.58A15.76,15.76,0,0,1,126,75.4c-.34.35-.72.64-1.08,1-.19.16-.38.3-.58.45s-.39.29-.59.42l-.61.41-.64.38-.32.19-.32.17-.66.34-.68.31-.35.15-.34.14c-.24.09-.47.19-.71.27l-.71.25-.73.22-.73.21c-.5.11-1,.24-1.5.33a24.32,24.32,0,0,1-3.1.4,24.59,24.59,0,0,1-6.43-.38,22.55,22.55,0,0,1-3.23-.9,18,18,0,0,1-3.14-1.5L99.2,78l-.37-.25c-.24-.17-.49-.34-.72-.53l-.36-.29a3.17,3.17,0,0,1-.34-.28l-.66-.6a19.19,19.19,0,0,1-2.36-2.71,17.22,17.22,0,0,1-1.93-3.46,16.7,16.7,0,0,1-1.14-4.36A19.1,19.1,0,0,1,93,55.42a21.57,21.57,0,0,1,3-4.82,22.52,22.52,0,0,1,2-2.18c.36-.34.72-.69,1.11-1,.19-.16.38-.33.58-.48l.6-.46c.2-.16.41-.3.62-.45l.64-.43,1.27-.78c.21-.13.42-.27.64-.39l.66-.37.67-.37a7.3,7.3,0,0,1,.68-.36l1.39-.68c.47-.22,1-.42,1.44-.62s1-.39,1.48-.57l.75-.27c.25-.09.51-.15.76-.23l.78-.23c.25-.07.51-.15.77-.2l1.58-.36,1.61-.28c.27,0,.54-.07.81-.1l.81-.1a47.94,47.94,0,0,1,6.57-.2c.55,0,1.1,0,1.65.07l.82,0,.83.07,1.65.13,1.65.17,1.65.18,1.66.2,1.67.25.84.13c.28,0,.55.1.83.15l1.67.33c.55.11,1.1.25,1.65.37,1.11.25,2.19.56,3.29.86.54.14,1.08.32,1.62.48s1.09.32,1.62.51c1.07.37,2.14.72,3.2,1.11,2.12.76,4.2,1.62,6.26,2.47s4.09,1.76,6.09,2.67,4,1.82,5.94,2.72,3.88,1.77,5.8,2.63c3.83,1.75,7.51,3.48,11.1,5,1.8.74,3.57,1.4,5.32,2s3.47,1.08,5.15,1.49A36.59,36.59,0,0,0,205.4,64.47Zm3.75-.44.58-.33.08,0-.67.26-.55.22Zm-13.29.46c-1.73-.37-3.5-.82-5.29-1.38s-3.6-1.2-5.43-1.91c-3.66-1.41-7.39-3.08-11.24-4.73C172,55.65,170,54.81,168,54s-4-1.74-6-2.6-4-1.71-6.09-2.54-4.12-1.6-6.22-2.31c-1-.37-2.1-.7-3.15-1-.53-.18-1.06-.32-1.59-.47s-1.06-.32-1.6-.45c-1.07-.27-2.13-.56-3.2-.77-.54-.11-1.07-.24-1.61-.34L137,43.15c-.26,0-.53-.1-.8-.13l-.81-.11-1.62-.21-1.63-.17-1.63-.16-.38,0,0,0a10.85,10.85,0,0,0,2.14.41c.87.09,1.83.33,2.9.55a46.52,46.52,0,0,1,7.36,2.3c2.69,1.17,5.53,2.61,8.45,4.22,4,2.17,7.63,4.28,10.81,6,1.59.83,3,1.63,4.35,2.26L168,59l1.56.7,1.62.54,2,.61,4.68,1.44a88.37,88.37,0,0,0,11.86,2.86,46.58,46.58,0,0,0,4.73.49c.76.06,1.51,0,2.25.06.37,0,.73,0,1.09,0s.72,0,1.07-.05c1-.07,2-.2,3-.36A40.79,40.79,0,0,1,195.86,64.49Z"/><path class="cls-7" d="M177.82,68.38l-1-.32c-.3-.1-.6-.18-.91-.27l-.91-.26c-.61-.15-1.22-.32-1.84-.44l-.92-.2-.92-.16-.47-.08-.46-.06-.92-.12-.94-.1-.94-.09-.21,0h0a4.71,4.71,0,0,0,1,.21c-.35,0-.7-.06-1.06-.08l-.27-.16-.41,0-.92-.06-.46,0-.46,0c-.31,0-.61,0-.92,0a26.28,26.28,0,0,0-3.57.17l-.43.05-.43.07-.85.15-.84.21-.41.11L157,67l-.4.13-.4.14c-.26.1-.52.19-.78.31s-.51.22-.75.34l-.74.38-.36.19-.36.21-.35.2-.35.22-.68.43-.32.22-.31.23-.3.23-.29.25c-.19.16-.37.34-.55.51a12.46,12.46,0,0,0-1,1.1,9.9,9.9,0,0,0-.81,1.18,11.22,11.22,0,0,0-.64,1.24,11.68,11.68,0,0,0-.45,1.25c0,.21-.12.41-.16.62s-.09.41-.11.62a8.93,8.93,0,0,0,0,2.36A8.14,8.14,0,0,0,148.28,83a8.71,8.71,0,0,0,1.13,1.3l.32.29.16.14.17.13a4.08,4.08,0,0,0,.33.25l.17.11.18.11a8,8,0,0,0,1.5.73,10.86,10.86,0,0,0,1.6.46,12.83,12.83,0,0,0,3.26.23,11.57,11.57,0,0,0,1.58-.18c.26,0,.52-.1.77-.15l.38-.1a2.59,2.59,0,0,0,.37-.11,9.28,9.28,0,0,0,4.74-3.09l.2-.28.09-.13.09-.14.17-.28c0-.1.09-.19.14-.29l.07-.14.06-.15.12-.29c0-.1.06-.2.1-.3l0-.14a.83.83,0,0,0,0-.15c0-.1.05-.2.07-.3l0-.3,0-.15v-.15c0-.1,0-.2,0-.3v-.44l0-.15,0-.28c0-.1,0-.19-.05-.29a.78.78,0,0,0,0-.14l0-.13L166,77.9l-.09-.26,0-.13a.69.69,0,0,0-.05-.13l-.1-.25c0-.08-.08-.16-.11-.24s-.17-.31-.25-.46A5.62,5.62,0,0,0,164.11,75a5.2,5.2,0,0,0-1.47-.8,5,5,0,0,0-1.4-.26h-.79a2.31,2.31,0,0,1,1.26,2.31,2.26,2.26,0,0,1-2.47,2,2.3,2.3,0,0,1,.09-4.58l.15-.08.48-.17.59-.15.33,0,.17,0h.18a5.24,5.24,0,0,1,1.63.14,5.48,5.48,0,0,1,1.8.8,6.3,6.3,0,0,1,1.64,1.62c.11.18.23.35.33.54l.15.28.14.3.07.15,0,.15.12.32.1.33,0,.16a1.36,1.36,0,0,1,0,.17l.07.35c0,.11,0,.23.05.35l0,.18c0,.06,0,.12,0,.18l0,.36v.56l0,.18c0,.13,0,.25,0,.38l-.07.37a1.62,1.62,0,0,0,0,.19l0,.19c0,.12-.07.25-.11.37l-.13.37-.07.18-.08.18-.17.36-.19.35-.1.18-.11.16-.22.34A8.9,8.9,0,0,1,165,85.21a8.11,8.11,0,0,1-.62.55l-.33.26a4.15,4.15,0,0,1-.34.24l-.35.23-.36.22-.19.11-.19.1-.37.19-.39.18-.2.09-.2.07-.4.16-.41.14-.42.13-.42.12c-.28.07-.57.14-.86.19a13,13,0,0,1-1.77.23,14.45,14.45,0,0,1-3.69-.22,12.46,12.46,0,0,1-1.85-.52,9.84,9.84,0,0,1-1.8-.85l-.22-.14-.21-.14c-.14-.1-.28-.19-.41-.3l-.21-.17-.19-.16-.38-.34A11.35,11.35,0,0,1,146.88,84a10,10,0,0,1-1.1-2,9.55,9.55,0,0,1-.65-2.5,10.89,10.89,0,0,1,.94-5.78,13.7,13.7,0,0,1,.74-1.42,12.49,12.49,0,0,1,.95-1.34,13.28,13.28,0,0,1,1.13-1.25c.21-.19.42-.4.64-.58l.33-.27.35-.27c.11-.09.23-.17.35-.25l.36-.25c.25-.14.49-.29.73-.44s.24-.16.37-.23l.38-.21.38-.21c.13-.07.26-.15.39-.21l.8-.39c.27-.13.55-.24.82-.36s.57-.22.85-.32l.43-.15c.15-.06.29-.09.44-.14l.44-.13.45-.12.9-.2.92-.16.47-.06.46,0a27.89,27.89,0,0,1,3.77-.12c.31,0,.63,0,.94,0l.48,0,.47,0,.95.08.94.1,1,.1.95.12,1,.14.48.07c.16,0,.31.06.47.09l1,.18.95.22c.63.14,1.25.32,1.88.49.31.08.62.19.93.28s.62.18.93.29c.61.21,1.23.41,1.83.64q.63.23,1.26.48l.09.79Q179.08,68.56,177.82,68.38Z"/><path class="cls-8" d="M217.14,53.44c-3,4.38-9,7.5-14.62,8.33s-11.5-1.1-16.47-3.62c-5.83-3-11.08-6.75-16.62-10.12-5.24-3.2-11-6.17-17.44-6.42-.72,0-1.38-.39-1.4-.89-.33-.43,0-1.14.54-1.55,4.41-3.1,10.72-3.1,16-1.63,5.39,1.51,8.36,6.27,11,10.55.25-2.49.92-4.92,3.16-6.59,1-.73,4.11-2,1.93,1.29-2.29,3.48.94,8.06,3.66,11,3.24,3.56,8.58,5.19,13.43,5.77a1.34,1.34,0,0,1,.37.09c.48,0,1-.06,1.44-.11a18.46,18.46,0,0,0,16.22-16c.94-6.14-.11-14.71-6.55-18.4-2.84-1.63-6.48-1.33-9.46-.42a8.92,8.92,0,0,0-1.26.49c.08.44-.12.73-.62,1.19-1.36,1.25-1.72,3.6-1.2,5.64,2.49-1,5.95-.42,8.48.67,3.36,1.46,5.72,5.23,4.08,7.9a1.71,1.71,0,0,1-.27.54,1.21,1.21,0,0,1-.7.82c-7.15,3.51-14.29-.86-16.13-7.61-2-7.54,4.73-12.59,12.53-12.59,7.37,0,11.61,6.19,13.1,12C222,40.3,221,47.86,217.14,53.44ZM208.36,37.1l.08,0-.12-.12A1,1,0,0,0,208.36,37.1Z"/><path class="cls-9" d="M246.1,63.48c1.69-.41,3.41-.9,5.16-1.49s3.51-1.26,5.31-2c3.59-1.48,7.27-3.21,11.1-5,1.92-.86,3.85-1.73,5.81-2.63s3.93-1.82,5.93-2.72,4-1.8,6.09-2.67,4.14-1.71,6.26-2.47c1.06-.39,2.13-.74,3.2-1.11.53-.19,1.08-.34,1.62-.51s1.08-.34,1.62-.48c1.1-.3,2.18-.61,3.29-.86.55-.12,1.1-.26,1.65-.37l1.67-.33c.28-.05.55-.11.83-.15l.84-.13,1.67-.25,1.66-.2,1.65-.18,1.65-.17,1.65-.13.83-.07.83,0c.55,0,1.09-.06,1.64-.07a47.94,47.94,0,0,1,6.57.2l.81.1c.27,0,.55.05.81.1l1.61.28,1.58.36c.26,0,.52.13.78.2L331,41c.25.08.51.14.76.23l.75.27c.5.18,1,.35,1.48.57s1,.4,1.44.62l1.39.68a7.3,7.3,0,0,1,.68.36l.67.37.66.37c.22.12.43.26.65.39l1.27.78.63.43c.21.15.42.29.62.45l.6.46c.2.15.39.32.58.48.39.31.75.66,1.11,1a22.52,22.52,0,0,1,2,2.18,21.57,21.57,0,0,1,2.95,4.82,19.1,19.1,0,0,1,1.64,10.09,16.7,16.7,0,0,1-1.14,4.36,17.71,17.71,0,0,1-1.92,3.46A19.92,19.92,0,0,1,345.42,76l-.66.6a3.17,3.17,0,0,1-.34.28l-.35.29c-.24.19-.49.36-.73.53L343,78l-.38.23a17.94,17.94,0,0,1-3.13,1.5,22.67,22.67,0,0,1-3.24.9,24.59,24.59,0,0,1-6.43.38,24.16,24.16,0,0,1-3.09-.4c-.51-.09-1-.22-1.51-.33l-.73-.21-.73-.22-.71-.25c-.24-.08-.47-.18-.7-.27l-.35-.14-.35-.15-.67-.31-.67-.34-.32-.17-.32-.19-.64-.38-.61-.41c-.2-.13-.4-.27-.59-.42s-.39-.29-.58-.45c-.36-.32-.74-.61-1.08-1a15.76,15.76,0,0,1-1.86-2.15l-.39-.58-.19-.3-.17-.3-.34-.61c-.1-.21-.2-.42-.29-.63l-.15-.31-.12-.32c-.07-.22-.15-.43-.23-.64l-.18-.66-.09-.32c0-.11-.05-.22-.07-.33l-.12-.65c0-.22-.05-.44-.08-.66l0-.32v-.33c0-.21,0-.43,0-.64l0-.64c0-.1,0-.21,0-.31l0-.31c0-.21.05-.41.08-.62l.12-.6a2.46,2.46,0,0,1,.07-.29l.08-.29.16-.58.21-.55.1-.27.12-.26.23-.52.27-.49a9.7,9.7,0,0,1,.58-.93,10.78,10.78,0,0,1,2.85-2.83,9.79,9.79,0,0,1,3.15-1.4,9,9,0,0,1,2.84-.25l.32,0,.3,0,.57.09c.37.08.71.16,1,.25l.84.31.27.12a4,4,0,1,1-4.15,4.43,4,4,0,0,1,2.19-4l-.3,0H323l-.28,0a8.64,8.64,0,0,0-2.44.46,8.92,8.92,0,0,0-2.57,1.4,9.41,9.41,0,0,0-2.23,2.51c-.15.26-.31.52-.44.8s-.14.28-.2.42-.11.29-.17.44l-.09.22-.07.23-.15.46c0,.16-.07.32-.11.48l0,.24a2,2,0,0,0,0,.24l-.08.49c0,.17,0,.34,0,.51l0,.25v.77c0,.17,0,.34,0,.52v.26l0,.26c0,.17.06.35.08.52l.13.52a2.61,2.61,0,0,0,.06.27l.08.25c.06.18.11.35.17.52s.13.34.2.51.07.18.11.26l.13.25.25.5.29.49.15.24.17.24.33.47a16.2,16.2,0,0,0,8.28,5.41c.21.07.43.13.65.18l.65.17c.45.1.89.21,1.35.28a23.12,23.12,0,0,0,8.45-.1,19.31,19.31,0,0,0,2.79-.8,14.41,14.41,0,0,0,2.62-1.27l.31-.19.3-.21c.2-.14.4-.27.58-.42l.28-.23a3.07,3.07,0,0,0,.29-.24l.55-.51a15.94,15.94,0,0,0,2-2.28A14.92,14.92,0,0,0,347,68.67a13.69,13.69,0,0,0,.94-3.55,15.37,15.37,0,0,0-.06-4.11c0-.36-.13-.72-.19-1.09s-.19-.72-.28-1.09a17.42,17.42,0,0,0-.8-2.18,18.18,18.18,0,0,0-1.1-2.15A19.88,19.88,0,0,0,344,52.44a19.11,19.11,0,0,0-1.71-1.92c-.31-.3-.62-.61-1-.89-.17-.14-.33-.29-.51-.43l-.52-.41c-.17-.14-.36-.27-.54-.4l-.56-.39-1.19-.75-.6-.38-.62-.35-.62-.36c-.21-.12-.41-.24-.63-.34l-1.29-.66c-.43-.21-.88-.39-1.32-.59s-.9-.37-1.36-.54l-.68-.26-.71-.22-.7-.22c-.24-.07-.48-.15-.72-.2l-1.45-.35-1.49-.28c-.24,0-.5-.07-.75-.11l-.76-.1a49.09,49.09,0,0,0-6.23-.29l-1.59,0-.81,0-.8.05-1.61.1-.71.06a3.17,3.17,0,0,1-.49.29,9.85,9.85,0,0,1-2.14.67c-.84.18-1.76.51-2.8.82a59.68,59.68,0,0,0-7.05,2.76c-2.54,1.26-5.32,2.78-8.23,4.38-4,2.17-7.74,4.13-11,5.65-1.66.74-3.17,1.42-4.55,1.93l-1.9.73-1.64.54-1.57.72-1.88.79c-1.35.55-2.88,1.18-4.58,1.81a61.32,61.32,0,0,1-12,3.31,37.79,37.79,0,0,1-4.89.44c-.8,0-1.58,0-2.34,0L244.37,67c-.37,0-.74,0-1.1-.11a30.23,30.23,0,0,1-6.82-1.68c-.41,0-.81-.07-1.21-.12.84.38,1.83.78,3,1.18l.76.27.8.25c.54.18,1.11.33,1.7.5,1.18.31,2.45.63,3.8.87a39.38,39.38,0,0,0,4.25.55c.74,0,1.48.07,2.24,0l1.15,0c.39,0,.78-.05,1.18-.08a66.51,66.51,0,0,0,11.59-2.13c3.35-.91,6.11-1.81,8-2.44.9-.44,2-.94,3.27-1.59s2.68-1.37,4.25-2.15,3.19-1.76,4.95-2.71l5.47-3.15c1.39-.82,2.74-1.62,4.06-2.38s2.48-1.58,3.63-2.38,2.23-1.57,3.27-2.27,2-1.32,3-1.86a20.85,20.85,0,0,1,4.64-2l.76-.2.57-.1.46-.08-.45.14-.54.18c-.22.07-.46.18-.73.29a23.22,23.22,0,0,0-4.31,2.44q-1.29.91-2.76,2.07L300,50.82a42.9,42.9,0,0,1-3.63,2.59c-1.3.8-2.66,1.62-4.05,2.45-1.9,1.11-3.79,2.11-5.57,3.07s-3.54,1.72-5.13,2.47-3.12,1.29-4.43,1.82-2.49.91-3.43,1.24A79.2,79.2,0,0,1,266,67.64a49.08,49.08,0,0,1-11.79,2.59c-.41,0-.81.07-1.22.08l-1.2,0c-.81,0-1.6,0-2.38-.11a32,32,0,0,1-4.38-.75c-1.38-.32-2.66-.73-3.85-1.13-.59-.22-1.16-.42-1.7-.65l-.79-.33-.75-.34a30.3,30.3,0,0,1-3.8-2.06c-.66-.12-1.31-.26-1.94-.44a10.78,10.78,0,0,1-3-1.35,2.67,2.67,0,0,0,.21-.45l0-.07a10.45,10.45,0,0,0,2.93,1.22l.31.07-.25-.2-.22-.17L231,63.1l-1.5-.57,0,0,1.55.38,2.15.59,2.81.8.77.21A36.59,36.59,0,0,0,246.1,63.48Zm-12.52.66-.55-.22-.66-.26.07,0L233,64Zm6.81,1.13c1,.16,2,.29,3,.36.35,0,.71,0,1.07.05s.72,0,1.09,0c.74,0,1.49,0,2.26-.06a46.69,46.69,0,0,0,4.72-.49,88.37,88.37,0,0,0,11.86-2.86l4.69-1.44,1.94-.61,1.62-.54,1.56-.7L276,58.1c1.31-.63,2.76-1.43,4.36-2.26,3.17-1.72,6.83-3.83,10.81-6,2.92-1.61,5.75-3.05,8.44-4.22a46.52,46.52,0,0,1,7.36-2.3c1.07-.22,2-.46,2.9-.55a10.85,10.85,0,0,0,2.14-.41l0,0-.38,0-1.63.16-1.63.17-1.62.21L306,43c-.27,0-.53.09-.8.13l-1.62.29c-.53.1-1.07.23-1.6.34-1.08.21-2.14.5-3.21.77-.54.13-1.06.3-1.6.45s-1.06.29-1.58.47c-1.06.33-2.11.66-3.16,1-2.09.71-4.16,1.51-6.22,2.31s-4.08,1.67-6.09,2.54-4,1.74-6,2.6-3.94,1.7-5.86,2.52c-3.85,1.65-7.58,3.32-11.24,4.73-1.83.71-3.65,1.34-5.43,1.91s-3.56,1-5.28,1.38A41.1,41.1,0,0,1,240.39,65.27Z"/><path class="cls-10" d="M264.35,68.38l1-.32c.3-.1.6-.18.91-.27l.91-.26c.61-.15,1.22-.32,1.84-.44l.92-.2.93-.16.46-.08.46-.06.93-.12.93-.1.94-.09.22,0h0a4.71,4.71,0,0,1-1,.21c.35,0,.7-.06,1.06-.08l.27-.16.41,0,.92-.06.46,0,.46,0c.31,0,.61,0,.92,0a26.28,26.28,0,0,1,3.57.17l.43.05.43.07.86.15.83.21.41.11.4.13.4.13.4.14c.26.1.52.19.78.31l.76.34.73.38.36.19.36.21.35.2.35.22.68.43.32.22L291,70l.3.23.29.25c.19.16.37.34.55.51a12.46,12.46,0,0,1,1,1.1,11.35,11.35,0,0,1,.82,1.18,13.14,13.14,0,0,1,.63,1.24,11.68,11.68,0,0,1,.45,1.25c.06.21.12.41.16.62s.09.41.11.62a8.53,8.53,0,0,1,0,2.36,8.27,8.27,0,0,1-.54,2A9,9,0,0,1,293.9,83a9.39,9.39,0,0,1-1.14,1.3l-.32.29-.16.14-.16.13-.34.25-.17.11-.18.11a8,8,0,0,1-1.5.73,10.86,10.86,0,0,1-1.6.46,12.8,12.8,0,0,1-3.26.23,11.75,11.75,0,0,1-1.58-.18c-.26,0-.52-.1-.77-.15l-.38-.1a2.59,2.59,0,0,1-.37-.11,9.33,9.33,0,0,1-4.74-3.09l-.19-.28-.1-.13-.08-.14-.17-.28-.15-.29-.07-.14-.06-.15-.12-.29c0-.1-.06-.2-.1-.3l0-.14a.83.83,0,0,1,0-.15l-.07-.3,0-.3,0-.15v-.15l0-.3v-.29s0-.1,0-.15V79l0-.28,0-.29a.78.78,0,0,1,0-.14l0-.13.07-.28a2.58,2.58,0,0,1,.08-.26l0-.13s0-.09.05-.13l.1-.25a2.56,2.56,0,0,0,.11-.24c.08-.16.17-.31.26-.46A5.41,5.41,0,0,1,278.06,75a5.2,5.2,0,0,1,1.47-.8,5,5,0,0,1,1.4-.26h.79a2.31,2.31,0,0,0-1.26,2.31,2.26,2.26,0,0,0,2.47,2,2.3,2.3,0,0,0-.09-4.58l-.15-.08-.48-.17-.59-.15-.33,0-.17,0h-.18a5.24,5.24,0,0,0-1.63.14,5.48,5.48,0,0,0-1.8.8,6.26,6.26,0,0,0-1.63,1.62,6.1,6.1,0,0,0-.34.54l-.15.28-.14.3-.06.15-.06.15-.12.32-.09.33-.05.16a1.36,1.36,0,0,0,0,.17c0,.12,0,.23-.07.35s0,.23,0,.35l0,.18a1.09,1.09,0,0,1,0,.18c0,.12,0,.24,0,.36v.56l0,.18,0,.38.08.37,0,.19,0,.19c0,.12.07.25.11.37s.09.24.13.37a1.34,1.34,0,0,1,.07.18l.08.18.17.36.19.35.1.18.11.16.23.34a8.83,8.83,0,0,0,1.06,1.23c.2.2.41.37.62.55l.33.26.34.24.35.23.37.22.18.11.19.1.38.19.39.18.19.09.2.07.4.16.41.14.42.13.42.12c.29.07.57.14.86.19a13,13,0,0,0,1.77.23,14.4,14.4,0,0,0,3.69-.22,12.46,12.46,0,0,0,1.85-.52,9.84,9.84,0,0,0,1.8-.85l.22-.14.21-.14.42-.3.2-.17.2-.16.37-.34A10.72,10.72,0,0,0,295.29,84a10,10,0,0,0,1.1-2,9.55,9.55,0,0,0,.65-2.5,11,11,0,0,0-.93-5.78,12.08,12.08,0,0,0-.75-1.42,12.49,12.49,0,0,0-.95-1.34,13.28,13.28,0,0,0-1.13-1.25c-.21-.19-.41-.4-.64-.58l-.33-.27-.35-.27c-.11-.09-.23-.17-.35-.25l-.36-.25-.73-.44c-.12-.08-.24-.16-.37-.23l-.38-.21-.38-.21c-.13-.07-.26-.15-.39-.21l-.8-.39c-.27-.13-.55-.24-.82-.36s-.56-.22-.85-.32l-.43-.15c-.14-.06-.29-.09-.44-.14l-.44-.13-.45-.12-.9-.2-.92-.16-.47-.06-.46,0a27.69,27.69,0,0,0-3.76-.12c-.32,0-.63,0-.95,0l-.47,0-.48,0-.94.08-.95.1-1,.1-.95.12-.95.14-.48.07c-.16,0-.32.06-.48.09l-1,.18-.94.22c-.64.14-1.26.32-1.89.49-.31.08-.62.19-.93.28s-.62.18-.92.29c-.62.21-1.23.41-1.84.64q-.63.23-1.26.48l-.09.79Q263.09,68.56,264.35,68.38Z"/><path class="cls-11" d="M221.86,33.83c1.49-5.79,5.73-12,13.1-12,7.81,0,14.58,5,12.53,12.59-1.83,6.75-9,11.12-16.13,7.61a1.21,1.21,0,0,1-.7-.82,2,2,0,0,1-.27-.54c-1.64-2.67.72-6.44,4.09-7.9,2.52-1.09,6-1.69,8.48-.67.51-2,.16-4.39-1.21-5.64-.5-.46-.7-.75-.62-1.19a8.92,8.92,0,0,0-1.26-.49c-3-.91-6.62-1.21-9.46.42-6.44,3.69-7.48,12.26-6.55,18.4a18.46,18.46,0,0,0,16.22,16c.49.05,1,.09,1.45.11a1.27,1.27,0,0,1,.36-.09c4.85-.58,10.2-2.21,13.44-5.77,2.71-3,5.94-7.56,3.65-11-2.18-3.33,1-2,1.93-1.29,2.24,1.67,2.91,4.1,3.16,6.59,2.66-4.28,5.63-9,11-10.55,5.22-1.47,11.54-1.47,15.94,1.63.59.41.87,1.12.54,1.55,0,.5-.68.86-1.4.89-6.41.25-12.19,3.22-17.44,6.42C267.2,51.4,262,55.19,256.12,58.15c-5,2.52-10.75,4.47-16.46,3.62s-11.59-4-14.63-8.33C221.15,47.86,220.2,40.3,221.86,33.83Zm12,3.17-.12.12.09,0Z"/><path class="cls-12" d="M364.26,82.57s2.91-8.19,0-12.07c0,0,47.19,11.13,80.49,12.07Z"/><path class="cls-13" d="M80.49,82.57s-2.91-8.19,0-12.07c0,0-47.19,11.13-80.49,12.07Z"/></g></g></svg>