<svg xmlns="http://www.w3.org/2000/svg" xmlns:xlink="http://www.w3.org/1999/xlink" viewBox="0 0 487.14 132.42"><defs><style>.cls-1{fill:url(#linear-gradient);}.cls-2{fill:url(#linear-gradient-2);}.cls-3{fill:url(#linear-gradient-3);}.cls-4{fill:url(#linear-gradient-4);}.cls-5{fill:url(#linear-gradient-5);}.cls-6{fill:url(#linear-gradient-6);}.cls-7{fill:url(#linear-gradient-7);}.cls-8{fill:url(#linear-gradient-8);}.cls-9{fill:url(#linear-gradient-9);}.cls-10{fill:url(#linear-gradient-10);}.cls-11{fill:url(#linear-gradient-11);}.cls-12{fill:url(#linear-gradient-12);}.cls-13{fill:url(#linear-gradient-13);}.cls-14{fill:url(#linear-gradient-14);}.cls-15{fill:url(#linear-gradient-15);}.cls-16{fill:url(#linear-gradient-16);}.cls-17{fill:url(#linear-gradient-17);}.cls-18{fill:url(#linear-gradient-18);}.cls-19{fill:url(#linear-gradient-19);}.cls-20{fill:url(#linear-gradient-20);}.cls-21{fill:url(#linear-gradient-21);}.cls-22{fill:url(#linear-gradient-22);}.cls-23{fill:url(#linear-gradient-23);}.cls-24{fill:url(#linear-gradient-24);}.cls-25{fill:url(#linear-gradient-25);}.cls-26{fill:url(#linear-gradient-26);}.cls-27{fill:url(#linear-gradient-27);}.cls-28{fill:url(#linear-gradient-28);}.cls-29{fill:url(#linear-gradient-29);}.cls-30{fill:url(#linear-gradient-30);}.cls-31{fill:url(#linear-gradient-31);}.cls-32{fill:url(#linear-gradient-32);}.cls-33{fill:url(#linear-gradient-33);}.cls-34{fill:url(#linear-gradient-34);}.cls-35{fill:url(#linear-gradient-35);}.cls-36{fill:url(#linear-gradient-36);}.cls-37{fill:url(#linear-gradient-37);}</style><linearGradient id="linear-gradient" x1="246.98" y1="15.21" x2="259.19" y2="15.21" gradientUnits="userSpaceOnUse"><stop offset="0" stop-color="#fef275"/><stop offset="1" stop-color="#bda32b"/></linearGradient><linearGradient id="linear-gradient-2" x1="238.04" y1="11.05" x2="247.8" y2="11.05" xlink:href="#linear-gradient"/><linearGradient id="linear-gradient-3" x1="226.4" y1="15.21" x2="238.61" y2="15.21" xlink:href="#linear-gradient"/><linearGradient id="linear-gradient-4" x1="215.01" y1="61.47" x2="253.74" y2="61.47" xlink:href="#linear-gradient"/><linearGradient id="linear-gradient-5" x1="243.12" y1="71.98" x2="257.97" y2="71.98" xlink:href="#linear-gradient"/><linearGradient id="linear-gradient-6" x1="244.57" y1="95.8" x2="259.39" y2="95.8" xlink:href="#linear-gradient"/><linearGradient id="linear-gradient-7" x1="232.34" y1="61.47" x2="271.02" y2="61.47" xlink:href="#linear-gradient"/><linearGradient id="linear-gradient-8" x1="228.06" y1="71.98" x2="242.95" y2="71.98" xlink:href="#linear-gradient"/><linearGradient id="linear-gradient-9" x1="238.16" y1="32.57" x2="247.84" y2="32.57" xlink:href="#linear-gradient"/><linearGradient id="linear-gradient-10" x1="238.9" y1="111.27" x2="247.59" y2="111.27" xlink:href="#linear-gradient"/><linearGradient id="linear-gradient-11" x1="226.98" y1="95.8" x2="241.79" y2="95.8" xlink:href="#linear-gradient"/><linearGradient id="linear-gradient-12" x1="146.68" y1="89.66" x2="173.46" y2="89.66" xlink:href="#linear-gradient"/><linearGradient id="linear-gradient-13" x1="0" y1="100.28" x2="231.28" y2="100.28" xlink:href="#linear-gradient"/><linearGradient id="linear-gradient-14" x1="89.86" y1="106.78" x2="230.28" y2="106.78" xlink:href="#linear-gradient"/><linearGradient id="linear-gradient-15" x1="183.4" y1="107.73" x2="221.23" y2="107.73" xlink:href="#linear-gradient"/><linearGradient id="linear-gradient-16" x1="27.53" y1="111.69" x2="32.49" y2="111.69" xlink:href="#linear-gradient"/><linearGradient id="linear-gradient-17" x1="23.44" y1="108.05" x2="27.58" y2="108.05" xlink:href="#linear-gradient"/><linearGradient id="linear-gradient-18" x1="20.46" y1="104.24" x2="23.99" y2="104.24" xlink:href="#linear-gradient"/><linearGradient id="linear-gradient-19" x1="18.57" y1="100.66" x2="21.27" y2="100.66" xlink:href="#linear-gradient"/><linearGradient id="linear-gradient-20" x1="17.28" y1="97.45" x2="19.36" y2="97.45" xlink:href="#linear-gradient"/><linearGradient id="linear-gradient-21" x1="33.13" y1="114.34" x2="37.28" y2="114.34" xlink:href="#linear-gradient"/><linearGradient id="linear-gradient-22" x1="38.05" y1="116.36" x2="41.57" y2="116.36" xlink:href="#linear-gradient"/><linearGradient id="linear-gradient-23" x1="42.5" y1="117.69" x2="45.2" y2="117.69" xlink:href="#linear-gradient"/><linearGradient id="linear-gradient-24" x1="46.38" y1="118.01" x2="48.48" y2="118.01" xlink:href="#linear-gradient"/><linearGradient id="linear-gradient-25" x1="313.68" y1="89.79" x2="340.46" y2="89.79" xlink:href="#linear-gradient"/><linearGradient id="linear-gradient-26" x1="255.86" y1="100.42" x2="487.14" y2="100.42" xlink:href="#linear-gradient"/><linearGradient id="linear-gradient-27" x1="256.86" y1="106.92" x2="397.28" y2="106.92" xlink:href="#linear-gradient"/><linearGradient id="linear-gradient-28" x1="265.9" y1="107.87" x2="303.74" y2="107.87" xlink:href="#linear-gradient"/><linearGradient id="linear-gradient-29" x1="454.64" y1="111.82" x2="459.61" y2="111.82" xlink:href="#linear-gradient"/><linearGradient id="linear-gradient-30" x1="459.56" y1="108.18" x2="463.7" y2="108.18" xlink:href="#linear-gradient"/><linearGradient id="linear-gradient-31" x1="463.15" y1="104.38" x2="466.67" y2="104.38" xlink:href="#linear-gradient"/><linearGradient id="linear-gradient-32" x1="465.86" y1="100.8" x2="468.56" y2="100.8" xlink:href="#linear-gradient"/><linearGradient id="linear-gradient-33" x1="467.78" y1="97.59" x2="469.85" y2="97.59" xlink:href="#linear-gradient"/><linearGradient id="linear-gradient-34" x1="449.86" y1="114.48" x2="454.01" y2="114.48" xlink:href="#linear-gradient"/><linearGradient id="linear-gradient-35" x1="445.57" y1="116.5" x2="449.09" y2="116.5" xlink:href="#linear-gradient"/><linearGradient id="linear-gradient-36" x1="441.94" y1="117.82" x2="444.64" y2="117.82" xlink:href="#linear-gradient"/><linearGradient id="linear-gradient-37" x1="438.66" y1="118.15" x2="440.76" y2="118.15" xlink:href="#linear-gradient"/></defs><g id="Layer_2" data-name="Layer 2"><g id="object"><path class="cls-1" d="M258.48,14.19a1.2,1.2,0,0,0,.66-.82,2.56,2.56,0,0,0-.22-1.63,4.18,4.18,0,0,0-1.74-1.83,5.2,5.2,0,0,0-3-.66,5.93,5.93,0,0,0-1.93.46,7.54,7.54,0,0,0-2.11,1.3,9,9,0,0,0-1.72,2,9.65,9.65,0,0,0-1.05,2.36,11,11,0,0,0-.39,2.28q0,.52,0,1c0,.31,0,.6.07.86s.09.5.13.7.11.38.15.52c.11.29.2.44.28.44s.16-.15.27-.42l.43-1.1c.09-.22.2-.46.3-.71l.38-.76a11.23,11.23,0,0,1,1-1.54,8,8,0,0,1,1.27-1.27,6.12,6.12,0,0,1,1.34-.82,5.17,5.17,0,0,1,1.15-.33l.23,0,.2,0h.32l.93-.05a5,5,0,0,1,.94,0A4.41,4.41,0,0,0,258.48,14.19Z"/><path class="cls-2" d="M247.8,8.48c-1.91,4.33-2.42,10.42-2.48,11.22,0,.05,0,.09-.07.09l-1.87,2.11a.61.61,0,0,1-.92,0l-1.87-2.11s-.06,0-.07-.09A39.89,39.89,0,0,0,238,8.48s3.84-6.93,4.71-8.37a.18.18,0,0,1,.34,0C244,1.55,247.82,8.44,247.8,8.48Z"/><path class="cls-3" d="M227.12,14.19a1.17,1.17,0,0,1-.66-.82,2.43,2.43,0,0,1,.22-1.63,4.16,4.16,0,0,1,1.73-1.83,5.24,5.24,0,0,1,3-.66,5.88,5.88,0,0,1,1.92.46,7.54,7.54,0,0,1,2.11,1.3,9,9,0,0,1,1.72,2,10.08,10.08,0,0,1,1.06,2.36,11,11,0,0,1,.38,2.28c0,.35,0,.68,0,1s0,.6-.08.86-.08.5-.13.7a3.34,3.34,0,0,1-.15.52c-.1.29-.19.44-.27.44s-.17-.15-.28-.42l-.43-1.1c-.09-.22-.2-.46-.3-.71s-.24-.5-.38-.76a12.17,12.17,0,0,0-1-1.54,8.08,8.08,0,0,0-1.28-1.27,6.12,6.12,0,0,0-1.34-.82,5,5,0,0,0-1.15-.33l-.23,0-.2,0h-.32l-.93-.05a5,5,0,0,0-.94,0A4.37,4.37,0,0,1,227.12,14.19Z"/><path class="cls-4" d="M227.15,20.94a1,1,0,0,1,.06.95,8.43,8.43,0,0,1-.73,1.62l-.6,1-.35.57-.36.62c-.26.41-.5.87-.77,1.33s-.53,1-.78,1.49a19.27,19.27,0,0,0-1.28,3.34,12.13,12.13,0,0,0-.33,1.8c0,.3,0,.61-.06.92a7.23,7.23,0,0,0,0,.93,12,12,0,0,0,1,3.9,22.37,22.37,0,0,0,2.42,4.17A50.38,50.38,0,0,0,229.86,49c2,2.08,4.42,4.4,7.12,6.89S242.65,61,245.53,64c.71.76,1.43,1.54,2.12,2.35.34.41.68.82,1,1.25l.25.32.25.35.5.69a23.16,23.16,0,0,1,2.87,6,24.62,24.62,0,0,1,.77,3.1,25.18,25.18,0,0,1,.37,3.07,26.19,26.19,0,0,1-.26,5.85,23.39,23.39,0,0,1-3.48,9.26c-.39.6-.81,1.14-1.2,1.64s-.82,1-1.23,1.34-.8.74-1.16,1.06-.74.56-1.06.79a10.05,10.05,0,0,1-1.58.91c-.38.18-.59.24-.63.19s.12-.22.42-.5.72-.7,1.25-1.24c.25-.28.54-.58.83-.93s.6-.73.89-1.17.61-.9.92-1.39.59-1.06.86-1.65a22.19,22.19,0,0,0,2-8.62,24.73,24.73,0,0,0-.37-5.1,25.89,25.89,0,0,0-.61-2.57,22.15,22.15,0,0,0-.92-2.51A19.1,19.1,0,0,0,245.62,72l-.44-.49-.21-.24-.24-.25c-.32-.34-.66-.67-1-1-.67-.66-1.39-1.3-2.11-1.94-2.9-2.53-6-4.9-8.94-7.21s-5.66-4.56-8-6.75A43,43,0,0,1,219.24,48a24.65,24.65,0,0,1-3.17-5.9,16.78,16.78,0,0,1-1-6.61c0-.54.09-1.07.16-1.6a14.61,14.61,0,0,1,.33-1.52,15.41,15.41,0,0,1,1-2.73,18,18,0,0,1,2.72-4.11c.48-.56,1-1,1.44-1.49s.93-.82,1.39-1.15l.65-.48c.21-.15.42-.28.62-.41a9.66,9.66,0,0,1,1.14-.64,5.61,5.61,0,0,1,1.75-.62C226.67,20.68,227,20.74,227.15,20.94Z"/><path class="cls-5" d="M243.28,44.41c.05-.33.62-.55,1.65-.65a12,12,0,0,1,4.32.61l.7.25c.23.08.46.2.7.31a11.15,11.15,0,0,1,1.47.79,12.11,12.11,0,0,1,2.83,2.5,12.49,12.49,0,0,1,2.1,3.65,15.38,15.38,0,0,1,.89,4.32,20.64,20.64,0,0,1-.47,5.52,29.24,29.24,0,0,1-2.39,6.76A61.47,61.47,0,0,1,251,75.18a51.92,51.92,0,0,0-3.92,6.52A20.44,20.44,0,0,0,245.77,85a17.21,17.21,0,0,0-.63,3.31,38,38,0,0,0,.11,6c.07.88.09,1.71.1,2.43s0,1.35-.08,1.86a4.79,4.79,0,0,1-.34,1.57,5.18,5.18,0,0,1-.19-1.57c-.07-.5-.14-1.1-.25-1.79s-.26-1.47-.45-2.34a33.18,33.18,0,0,1-.91-6.25,21,21,0,0,1,1.31-7.64,52.25,52.25,0,0,1,3.48-7.31,64.93,64.93,0,0,0,3.34-6.58,27.83,27.83,0,0,0,1.67-5.89,20,20,0,0,0,.23-4.36,11.25,11.25,0,0,0-1.73-5.62,10.77,10.77,0,0,0-1.68-2c-.32-.27-.62-.55-.95-.78-.16-.12-.31-.25-.48-.36l-.48-.32c-1.28-.82-2.48-1.38-3.3-1.86S243.23,44.74,243.28,44.41Z"/><path class="cls-6" d="M258.52,85.84c.21,0,.4.24.55.64a3.69,3.69,0,0,1,.2.72,8.17,8.17,0,0,1,.1,1,13.52,13.52,0,0,1-1,5.42A19,19,0,0,1,256,97.79a23,23,0,0,1-4.51,4.47c-.42.32-.85.61-1.25.9l-.66.4c-.22.13-.44.23-.65.34-.84.41-1.61.71-2.25,1s-1.15.49-1.5.66-.56.27-.59.23.1-.21.38-.52a12.15,12.15,0,0,1,1.31-1.08c.57-.42,1.26-.88,1.95-1.4.17-.14.35-.27.51-.41l.49-.45c.32-.34.68-.67,1-1a25.18,25.18,0,0,0,3.45-4.63,30,30,0,0,0,1.78-3.84c.68-1.75,1.22-3.38,1.7-4.6.11-.3.24-.57.36-.82a3.93,3.93,0,0,1,.33-.62C258.07,86,258.3,85.83,258.52,85.84Z"/><path class="cls-7" d="M258.88,20.94c.17-.2.48-.26.93-.19a5.61,5.61,0,0,1,1.75.62,9.66,9.66,0,0,1,1.14.64c.2.13.41.26.62.41s.43.31.65.48c.46.33.9.73,1.39,1.15a20.66,20.66,0,0,1,1.44,1.49,18,18,0,0,1,2.72,4.11,16.25,16.25,0,0,1,1,2.73c.14.49.22,1,.32,1.52S271,35,271,35.5a17,17,0,0,1-1,6.61,25,25,0,0,1-3.18,5.9,43.46,43.46,0,0,1-5.47,6.12c-2.31,2.19-5,4.45-8,6.76s-6,4.68-8.93,7.21c-.72.64-1.43,1.28-2.11,1.94l-1,1-.24.26-.21.24c-.15.16-.3.32-.44.49a18.75,18.75,0,0,0-2.74,4.51,20.93,20.93,0,0,0-.91,2.51,25.89,25.89,0,0,0-.61,2.57,23.85,23.85,0,0,0-.36,5.08,22.41,22.41,0,0,0,2,8.61c.27.59.57,1.12.86,1.64s.6,1,.91,1.39.61.81.89,1.17.58.65.82.94c.53.54.95,1,1.25,1.24s.43.47.4.52-.24,0-.62-.2a12.3,12.3,0,0,1-1.57-.92c-.31-.24-.68-.49-1-.8s-.77-.65-1.16-1.06-.79-.85-1.22-1.33-.81-1-1.19-1.64A23.56,23.56,0,0,1,232.66,87a26,26,0,0,1-.26-5.83,25.18,25.18,0,0,1,.37-3.07,26.92,26.92,0,0,1,.76-3.1,23.33,23.33,0,0,1,2.86-6c.16-.24.33-.47.5-.7l.25-.35.25-.32c.33-.43.68-.84,1-1.25.69-.81,1.4-1.59,2.12-2.35,2.87-3,5.83-5.68,8.53-8.19s5.14-4.81,7.12-6.9a50.09,50.09,0,0,0,4.48-5.34,22.37,22.37,0,0,0,2.42-4.17,12.28,12.28,0,0,0,1-3.9c0-.31,0-.62,0-.93s0-.62-.06-.92a12.13,12.13,0,0,0-.33-1.8,18.49,18.49,0,0,0-1.28-3.34c-.25-.52-.53-1-.78-1.49s-.51-.92-.77-1.33l-.36-.62c-.12-.2-.23-.39-.35-.57-.21-.36-.4-.71-.6-1a8.43,8.43,0,0,1-.73-1.62A1,1,0,0,1,258.88,20.94Z"/><path class="cls-8" d="M242.75,44.41c.05.33-.42.72-1.26,1.17s-2,1-3.3,1.86l-.48.32c-.17.11-.32.24-.48.36-.33.23-.63.51-.95.78a10.77,10.77,0,0,0-1.68,2,11.25,11.25,0,0,0-1.73,5.62,20,20,0,0,0,.23,4.36,27.83,27.83,0,0,0,1.68,5.88,64.93,64.93,0,0,0,3.34,6.58,50.14,50.14,0,0,1,3.49,7.31,21.07,21.07,0,0,1,1.33,7.65,33.69,33.69,0,0,1-.92,6.25c-.19.87-.32,1.65-.45,2.34s-.18,1.29-.26,1.79a5,5,0,0,1-.2,1.57,5.09,5.09,0,0,1-.33-1.57c0-.51-.07-1.14-.07-1.86s0-1.54.1-2.43a37.94,37.94,0,0,0,.12-6,16.61,16.61,0,0,0-.64-3.32A20.44,20.44,0,0,0,239,81.69a50.26,50.26,0,0,0-3.94-6.52A62.08,62.08,0,0,1,231,68.46a29.23,29.23,0,0,1-2.4-6.75,20.58,20.58,0,0,1-.46-5.52,15.37,15.37,0,0,1,.88-4.32,12.49,12.49,0,0,1,2.1-3.65,12.11,12.11,0,0,1,2.83-2.5,11.15,11.15,0,0,1,1.47-.79,7.28,7.28,0,0,1,.71-.31l.69-.25a12,12,0,0,1,4.33-.61C242.13,43.86,242.7,44.08,242.75,44.41Z"/><path class="cls-9" d="M247.84,32.57A4.84,4.84,0,1,1,243,27.73,4.84,4.84,0,0,1,247.84,32.57Z"/><circle class="cls-10" cx="243.25" cy="111.27" r="4.34"/><path class="cls-11" d="M227.85,85.84c.22,0,.45.17.67.52a3.92,3.92,0,0,1,.34.62c.12.25.24.52.36.82.48,1.22,1,2.85,1.7,4.6a29.38,29.38,0,0,0,1.78,3.83,25.23,25.23,0,0,0,3.45,4.62c.33.36.68.7,1,1l.49.44.5.41c.69.52,1.38,1,1.95,1.4a11.13,11.13,0,0,1,1.31,1.09c.28.31.41.49.38.53s-.24-.06-.59-.24-.86-.4-1.5-.67-1.4-.56-2.25-1c-.21-.11-.43-.21-.64-.34s-.45-.26-.66-.4c-.41-.29-.84-.57-1.25-.89a22.8,22.8,0,0,1-4.52-4.47A18.49,18.49,0,0,1,228,93.57a13.69,13.69,0,0,1-1-5.42,8.17,8.17,0,0,1,.1-1,4.56,4.56,0,0,1,.2-.72C227.44,86.08,227.63,85.86,227.85,85.84Z"/><path class="cls-12" d="M146.71,95.67c.18.63,1.34.87,3,.68a21.3,21.3,0,0,0,5.88-1.77,102.11,102.11,0,0,0,10.83-6.15c2-1.28,3.84-2.54,5.13-3.57s2-1.84,1.93-2a12.87,12.87,0,0,0-2.53.89c-1.5.58-3.57,1.33-5.78,2.13-4.4,1.61-9.38,3.37-11.51,4.32a26.77,26.77,0,0,0-5.21,3C147.18,94.2,146.53,95,146.71,95.67Z"/><path class="cls-13" d="M5.67,87a15.79,15.79,0,0,0-.78,3.61A18.48,18.48,0,0,0,5,95a21.21,21.21,0,0,0,4.32,9.82,41.69,41.69,0,0,0,9.76,8.93,75.89,75.89,0,0,0,13,7,91.06,91.06,0,0,0,14.49,4.78A105.15,105.15,0,0,0,61.31,128a132.58,132.58,0,0,0,25.94-.39c3.58-.58,7.57-1.36,11.84-2.37s8.79-2.28,13.44-3.78a205,205,0,0,0,28.24-11.54c4.59-2.27,9-4.69,13.22-7.14l3.08-1.86c1-.6,2-1.24,2.94-1.87l5.66-3.75c7.32-4.85,13.7-8.81,18.17-11.38a164.43,164.43,0,0,1,17.67-9,65.57,65.57,0,0,1,15.71-4.76,24.8,24.8,0,0,1,6.51-.14,14.72,14.72,0,0,1,2.68.57,11.37,11.37,0,0,1,2.13,1,7,7,0,0,1,2.34,2.16c.38.62.47,1,.34,1.1-.29.25-1.28-.84-3.48-1.56s-5.66-.77-9.89.27A78.18,78.18,0,0,0,203.33,79c-5.35,2.52-11.11,5.64-17.07,9.08-4.4,2.53-10.75,6.33-18.15,11l-5.78,3.61c-1,.61-2,1.25-3.1,1.86l-3.2,1.8c-4.34,2.39-8.94,4.7-13.69,6.86a200,200,0,0,1-29.09,10.65c-4.77,1.32-9.41,2.39-13.76,3.24s-8.43,1.42-12.06,1.82a128,128,0,0,1-26.29,1.58,106.6,106.6,0,0,1-15.28-1.89,93,93,0,0,1-15.22-4.43,78.58,78.58,0,0,1-13.87-7,51.92,51.92,0,0,1-6-4.45,37.55,37.55,0,0,1-5-5.16A25.4,25.4,0,0,1,.27,95.75a22.73,22.73,0,0,1-.17-5.6,19.76,19.76,0,0,1,1-4.71,21.34,21.34,0,0,1,6.32-9.32,23,23,0,0,1,4.43-3,23.33,23.33,0,0,1,4.77-1.81,19.5,19.5,0,0,1,4.89-.65,15.62,15.62,0,0,1,4.71.73A12.8,12.8,0,0,1,33,76.49,10.26,10.26,0,0,1,34.52,80a6.88,6.88,0,0,1-.16,3.61,4.83,4.83,0,0,1-2,2.59,5.49,5.49,0,0,1-1.29.56l-.61.12a2.78,2.78,0,0,1-.57.07A8.19,8.19,0,0,1,28,86.84a8.93,8.93,0,0,1-1.27-.39c-.65-.29-1-.52-.92-.69s.42-.25,1.08-.27c.33,0,.74-.07,1.19-.09a8.86,8.86,0,0,0,1.49-.29,1.64,1.64,0,0,0,.39-.14l.39-.16a3.43,3.43,0,0,0,.66-.47,2.44,2.44,0,0,0,.78-1.45,5.88,5.88,0,0,0-1.5-4.41,9.57,9.57,0,0,0-5.18-3.24,12.37,12.37,0,0,0-3.48-.33,16.14,16.14,0,0,0-3.78.69A20.19,20.19,0,0,0,14,77.2a18.82,18.82,0,0,0-3.47,2.48A17.36,17.36,0,0,0,5.67,87Z"/><path class="cls-14" d="M89.86,128.5s2.08.52,5.9,1.38l3.19.59c1.17.21,2.44.47,3.83.63l4.42.58,5,.4.66.06.67,0,1.37,0,2.82.07c1,0,2,0,3,0l3.06-.09c.52,0,1-.06,1.57-.11l1.6-.13c1.07-.1,2.16-.18,3.27-.3l3.35-.49,1.71-.25c.57-.09,1.14-.23,1.71-.34l3.5-.73c.6-.12,1.18-.28,1.77-.44l1.77-.49,1.79-.5.91-.25.89-.31,3.61-1.24.91-.32.89-.37,1.81-.75,1.81-.76.91-.38.89-.44,3.6-1.78c.3-.15.6-.29.9-.45l.88-.5,1.76-1,1.76-1c.29-.17.59-.33.87-.51l.85-.56,3.33-2.21.82-.55.79-.59,1.57-1.18c1-.79,2.08-1.55,3.07-2.34,3.93-3.19,7.55-6.36,11.05-9.29s6.84-5.63,10.1-8a85,85,0,0,1,9.39-6,49.28,49.28,0,0,1,15.16-5.45c1.9-.3,3.4-.44,4.42-.5l1.56-.08-1.56-.16a40.08,40.08,0,0,0-4.51-.12,43.09,43.09,0,0,0-7.13.9c-1.38.29-2.84.69-4.37,1.15s-3.12,1-4.76,1.75a76.92,76.92,0,0,0-10.3,5.32c-3.56,2.16-7.2,4.7-10.91,7.47s-7.49,5.78-11.42,8.77c-1,.74-2,1.43-3,2.16l-1.51,1.1-.76.55-.79.5L166.07,113l-.81.52c-.27.17-.55.32-.83.48l-1.67,1-1.67,1-.83.48-.85.44L156,118.6l-.84.43-.86.37-1.7.76-1.68.75-.84.38-.85.32-3.38,1.29-.83.32-.85.28-1.68.54-1.66.54c-.55.18-1.1.37-1.65.5l-3.29.87a113.27,113.27,0,0,1-23.7,3.36l-4.91.11-4.39-.07c-1.38,0-2.65-.1-3.83-.16L95.87,129Z"/><path class="cls-15" d="M183.41,117.1c.09,1.22,1.67,2.23,4.25,2.75a23.94,23.94,0,0,0,10-.43,31.47,31.47,0,0,0,3.63-1.16,38,38,0,0,0,4.7-2.13,37.27,37.27,0,0,0,5-3.22,31.25,31.25,0,0,0,4.52-4.22,24.38,24.38,0,0,0,5.06-9.07c.74-2.58.74-4.27.5-4.34s-1.07,1.36-2.54,3.32a26.87,26.87,0,0,1-6.54,6.2,34,34,0,0,1-9.09,4.15c-1.5.46-2.93.82-4.2,1.1s-2.36.52-3.18.73a47.12,47.12,0,0,0-8.6,2.82C184.71,114.66,183.31,115.87,183.41,117.1Z"/><path class="cls-16" d="M28,110.21a2.35,2.35,0,0,0-.47,1.85,2.59,2.59,0,0,0,1.13,1.68,2.62,2.62,0,0,0,2,.36,2.35,2.35,0,0,0,1.51-1.18,2.63,2.63,0,0,0,.22-1.87,2.29,2.29,0,0,0-1-1.47,2.4,2.4,0,0,0-1.75-.34A2.71,2.71,0,0,0,28,110.21Z"/><path class="cls-17" d="M24.11,106.52a1.93,1.93,0,0,0-.67,1.45,2.14,2.14,0,0,0,.64,1.53,2.23,2.23,0,0,0,1.55.62,2,2,0,0,0,1.43-.7,2.13,2.13,0,0,0,.51-1.49,2,2,0,0,0-2-2A2.15,2.15,0,0,0,24.11,106.52Z"/><path class="cls-18" d="M21.23,102.78a1.73,1.73,0,0,0-.74,1.14,1.78,1.78,0,0,0,.34,1.35A1.71,1.71,0,0,0,22,106a1.68,1.68,0,0,0,1.3-.37,1.81,1.81,0,0,0,.33-2.44,1.67,1.67,0,0,0-1.11-.67A1.8,1.8,0,0,0,21.23,102.78Z"/><path class="cls-19" d="M19.28,99.46a1.35,1.35,0,0,0-.53,1.86,1.33,1.33,0,0,0,1.86.49,1.35,1.35,0,0,0-1.33-2.35Z"/><path class="cls-20" d="M17.91,96.49a1,1,0,1,0,.85,1.9,1,1,0,0,0-.85-1.9Z"/><path class="cls-21" d="M37.1,115.2a2.08,2.08,0,0,1-2.74,1,1.81,1.81,0,0,1-.64-.47,2.29,2.29,0,0,1-.45-.69,1.92,1.92,0,0,1,0-1.59,2.27,2.27,0,0,1,1.15-1.08,1.94,1.94,0,0,1,.76-.14,2,2,0,0,1,.82.19A2.06,2.06,0,0,1,37.1,115.2Z"/><path class="cls-22" d="M41.47,117a1.76,1.76,0,1,1-3.28-1.29A1.76,1.76,0,0,1,41.47,117Z"/><path class="cls-23" d="M45.19,117.94a1.27,1.27,0,0,1-.56.88,1.42,1.42,0,0,1-1.08.18,1.32,1.32,0,0,1-1-1.67,1.39,1.39,0,0,1,1.61-1,1.31,1.31,0,0,1,.79.56A1.54,1.54,0,0,1,45.19,117.94Z"/><path class="cls-24" d="M48.43,117.81a.86.86,0,0,1-.11.78,1.05,1.05,0,0,1-.79.45,1,1,0,0,1-1.15-1A1.12,1.12,0,0,1,47.3,117a1,1,0,0,1,.66.19A1.34,1.34,0,0,1,48.43,117.81Z"/><path class="cls-25" d="M340.43,95.81c-.18.62-1.34.87-3,.67a21.58,21.58,0,0,1-5.88-1.76,102.91,102.91,0,0,1-10.83-6.15c-2-1.29-3.84-2.55-5.14-3.58s-2-1.83-1.92-1.94a12.15,12.15,0,0,1,2.52.89c1.51.57,3.58,1.32,5.78,2.13,4.41,1.61,9.38,3.37,11.52,4.32a25.87,25.87,0,0,1,5.2,3C340,94.34,340.61,95.17,340.43,95.81Z"/><path class="cls-26" d="M481.46,87.13a15.17,15.17,0,0,1,.78,3.61,18,18,0,0,1-.07,4.44,21.14,21.14,0,0,1-4.32,9.81,41.47,41.47,0,0,1-9.76,8.93,76.62,76.62,0,0,1-13,7,90.14,90.14,0,0,1-14.5,4.77,103.35,103.35,0,0,1-14.78,2.41,132.77,132.77,0,0,1-25.95-.38c-3.57-.58-7.56-1.37-11.83-2.37s-8.79-2.29-13.44-3.78a206.84,206.84,0,0,1-28.25-11.54c-4.59-2.28-9-4.69-13.21-7.15l-3.09-1.85c-1-.6-2-1.24-2.93-1.88l-5.66-3.74c-7.32-4.85-13.7-8.82-18.17-11.38a161.81,161.81,0,0,0-17.68-9,65,65,0,0,0-15.71-4.76,24.76,24.76,0,0,0-6.5-.15,15.59,15.59,0,0,0-2.68.58,10.81,10.81,0,0,0-2.13,1,7,7,0,0,0-2.34,2.16c-.39.62-.47,1-.35,1.11.3.25,1.29-.84,3.49-1.56s5.66-.77,9.88.26a78.35,78.35,0,0,1,14.53,5.47c5.35,2.52,11.1,5.63,17.07,9.08,4.4,2.52,10.75,6.32,18.15,11l5.77,3.6c1,.62,2,1.25,3.11,1.87l3.2,1.8c4.34,2.38,8.94,4.7,13.69,6.85A198.89,198.89,0,0,0,373.89,124c4.77,1.32,9.41,2.39,13.76,3.24s8.42,1.41,12.06,1.81A127.22,127.22,0,0,0,426,130.65a103.83,103.83,0,0,0,15.28-1.89,90.94,90.94,0,0,0,15.21-4.43,78.3,78.3,0,0,0,13.88-7,55.3,55.3,0,0,0,6-4.45,38.13,38.13,0,0,0,5-5.16,25.42,25.42,0,0,0,5.46-11.87,22.35,22.35,0,0,0,.18-5.61,19.78,19.78,0,0,0-1-4.7,21.43,21.43,0,0,0-6.32-9.32,22.45,22.45,0,0,0-4.43-3,24.2,24.2,0,0,0-4.77-1.82,19.52,19.52,0,0,0-4.9-.65,15.93,15.93,0,0,0-4.7.74,12.81,12.81,0,0,0-6.83,5.1,10,10,0,0,0-1.48,3.53,6.89,6.89,0,0,0,.16,3.61,4.8,4.8,0,0,0,2.05,2.58,5.3,5.3,0,0,0,1.28.57l.61.12a2.31,2.31,0,0,0,.57.06,7.28,7.28,0,0,0,1.89-.13,8.22,8.22,0,0,0,1.27-.38c.65-.3,1-.53.92-.69s-.43-.25-1.09-.28c-.33,0-.73-.07-1.19-.08a10.24,10.24,0,0,1-1.49-.29,1.74,1.74,0,0,1-.38-.14l-.39-.16a3.91,3.91,0,0,1-.67-.48,2.48,2.48,0,0,1-.78-1.45,5.89,5.89,0,0,1,1.51-4.4,9.57,9.57,0,0,1,5.18-3.24,11.67,11.67,0,0,1,3.48-.33,16.24,16.24,0,0,1,3.78.69,20.47,20.47,0,0,1,3.8,1.6,18.82,18.82,0,0,1,3.47,2.48A17.18,17.18,0,0,1,481.46,87.13Z"/><path class="cls-27" d="M397.28,128.64s-2.09.51-5.9,1.37l-3.19.6c-1.18.2-2.45.46-3.83.62l-4.42.59-5,.4-.66.05-.67,0-1.37,0-2.83.08c-1,0-1.94,0-2.94,0l-3.07-.09c-.52,0-1-.06-1.57-.1l-1.59-.14c-1.07-.09-2.17-.17-3.27-.3l-3.35-.48-1.71-.26c-.57-.08-1.14-.22-1.72-.33l-3.49-.74c-.6-.11-1.18-.28-1.77-.44l-1.77-.49-1.8-.49-.9-.26-.89-.3L336,126.71l-.91-.32-.9-.37-1.8-.75-1.81-.76-.92-.39-.89-.43-3.59-1.78c-.3-.15-.6-.29-.9-.45l-.88-.51-1.76-1-1.77-1c-.29-.17-.58-.33-.87-.52l-.84-.55-3.33-2.21-.83-.55-.79-.59-1.56-1.18c-1-.79-2.08-1.56-3.07-2.35-3.94-3.19-7.56-6.35-11.05-9.28s-6.85-5.63-10.1-8a82.77,82.77,0,0,0-9.4-6,49.15,49.15,0,0,0-15.15-5.45,40.44,40.44,0,0,0-4.42-.5l-1.56-.08,1.55-.16a38.06,38.06,0,0,1,4.52-.12,41,41,0,0,1,7.13.9c1.38.29,2.84.68,4.37,1.15s3.12,1,4.75,1.75a75.27,75.27,0,0,1,10.31,5.32c3.55,2.16,7.19,4.69,10.91,7.46s7.49,5.79,11.41,8.78c1,.74,2,1.43,3,2.16l1.52,1.09.76.55.79.51,3.19,2.06.8.52c.27.18.56.33.83.49l1.67,1,1.67,1,.83.49.85.43,3.38,1.72.84.43.85.38,1.7.75,1.69.76.84.37.85.33,3.38,1.29.83.32.84.27,1.68.55,1.67.53c.55.18,1.09.37,1.65.5l3.29.88a112.54,112.54,0,0,0,23.7,3.35l4.91.12,4.39-.08c1.38,0,2.65-.1,3.83-.15l3.22-.18Z"/><path class="cls-28" d="M303.73,117.23c-.09,1.22-1.68,2.24-4.25,2.75a23.92,23.92,0,0,1-10-.42,30.86,30.86,0,0,1-3.63-1.16,39,39,0,0,1-4.71-2.14,36.92,36.92,0,0,1-5-3.22,30.1,30.1,0,0,1-4.51-4.22,24.23,24.23,0,0,1-5.06-9.07c-.74-2.58-.75-4.26-.5-4.34s1.06,1.36,2.54,3.33a26.51,26.51,0,0,0,6.54,6.2,34.36,34.36,0,0,0,9.09,4.15c1.5.46,2.93.81,4.19,1.1s2.36.52,3.19.73a45.63,45.63,0,0,1,8.6,2.82C302.43,114.8,303.82,116,303.73,117.23Z"/><path class="cls-29" d="M459.1,110.35a2.27,2.27,0,0,1,.47,1.85,2.5,2.5,0,0,1-1.13,1.67,2.6,2.6,0,0,1-2,.37,2.34,2.34,0,0,1-1.51-1.19,2.68,2.68,0,0,1-.23-1.87,2.39,2.39,0,0,1,1-1.47,2.44,2.44,0,0,1,1.75-.33A2.61,2.61,0,0,1,459.1,110.35Z"/><path class="cls-30" d="M463,106.65a2,2,0,0,1,.67,1.45,2.21,2.21,0,0,1-.64,1.54,2.17,2.17,0,0,1-1.55.61,2,2,0,0,1-1.44-.7,2.14,2.14,0,0,1-.51-1.48,2,2,0,0,1,2-2A2.16,2.16,0,0,1,463,106.65Z"/><path class="cls-31" d="M465.9,102.92a1.71,1.71,0,0,1,.75,1.13,1.8,1.8,0,0,1-.34,1.36,1.78,1.78,0,0,1-1.2.72,1.69,1.69,0,0,1-1.3-.38,1.8,1.8,0,0,1-.33-2.44,1.76,1.76,0,0,1,1.11-.67A1.83,1.83,0,0,1,465.9,102.92Z"/><path class="cls-32" d="M467.85,99.6a1.35,1.35,0,1,1-1.81.53A1.34,1.34,0,0,1,467.85,99.6Z"/><path class="cls-33" d="M469.23,96.63a1,1,0,1,1-.85,1.89,1,1,0,0,1,.85-1.89Z"/><path class="cls-34" d="M450,115.33a2.06,2.06,0,0,0,2.73,1,1.92,1.92,0,0,0,.65-.46,2.29,2.29,0,0,0,.45-.69,2,2,0,0,0-.05-1.59,2.18,2.18,0,0,0-1.16-1.08,1.86,1.86,0,0,0-.75-.15,2.23,2.23,0,0,0-.83.19A2.07,2.07,0,0,0,450,115.33Z"/><path class="cls-35" d="M445.67,117.11a1.76,1.76,0,1,0,3.28-1.29,1.76,1.76,0,0,0-3.28,1.29Z"/><path class="cls-36" d="M442,118.08a1.24,1.24,0,0,0,.55.87,1.35,1.35,0,0,0,1.08.18,1.32,1.32,0,0,0,1-1.67,1.41,1.41,0,0,0-1.62-1,1.33,1.33,0,0,0-.78.57A1.47,1.47,0,0,0,442,118.08Z"/><path class="cls-37" d="M438.7,118a.9.9,0,0,0,.12.78,1.11,1.11,0,0,0,.78.45,1,1,0,0,0,1.16-1,1.14,1.14,0,0,0-.92-1.07,1,1,0,0,0-.66.2A1.31,1.31,0,0,0,438.7,118Z"/></g></g></svg>